<?xml version="1.0" encoding="UTF-8" standalone="no"?>
<svg
   version="1.1"
   width="946.08002"
   height="630.71997"
   viewBox="0 0 946.08002 630.71997"
   id="svg4"
   sodipodi:docname="My Project3-28-2026_11-04-16.svg"
   inkscape:version="1.4.3 (0d15f75042, 2025-12-25)"
   xmlns:inkscape="http://www.inkscape.org/namespaces/inkscape"
   xmlns:sodipodi="http://sodipodi.sourceforge.net/DTD/sodipodi-0.dtd"
   xmlns:xlink="http://www.w3.org/1999/xlink"
   xmlns="http://www.w3.org/2000/svg"
   xmlns:svg="http://www.w3.org/2000/svg">
  <defs
     id="defs4">
    <linearGradient
       id="linearGradient4"
       inkscape:collect="always">
      <stop
         style="stop-color:#e4c2a0;stop-opacity:1;"
         offset="0"
         id="stop4" />
      <stop
         style="stop-color:#613e1c;stop-opacity:0;"
         offset="1"
         id="stop5" />
    </linearGradient>
    <inkscape:path-effect
       effect="bspline"
       id="path-effect4"
       is_visible="true"
       lpeversion="1.3"
       weight="33.333333"
       steps="2"
       helper_size="0"
       apply_no_weight="true"
       apply_with_weight="true"
       only_selected="false"
       uniform="false" />
    <inkscape:path-effect
       effect="spiro"
       id="path-effect3"
       is_visible="true"
       lpeversion="1" />
    <linearGradient
       inkscape:collect="always"
       xlink:href="#linearGradient4"
       id="linearGradient1"
       x1="313.07135"
       y1="367.57925"
       x2="373.11243"
       y2="932.6087"
       gradientUnits="userSpaceOnUse" />
    <linearGradient
       inkscape:collect="always"
       xlink:href="#linearGradient4"
       id="linearGradient2"
       gradientUnits="userSpaceOnUse"
       x1="354.88565"
       y1="463.00168"
       x2="364.53513"
       y2="632.40332" />
  </defs>
  <sodipodi:namedview
     id="namedview4"
     pagecolor="#ffffff"
     bordercolor="#000000"
     borderopacity="0.25"
     inkscape:showpageshadow="2"
     inkscape:pageopacity="0.0"
     inkscape:pagecheckerboard="0"
     inkscape:deskcolor="#d1d1d1"
     inkscape:zoom="0.70981337"
     inkscape:cx="472.65945"
     inkscape:cy="263.44953"
     inkscape:window-width="1920"
     inkscape:window-height="995"
     inkscape:window-x="0"
     inkscape:window-y="0"
     inkscape:window-maximized="1"
     inkscape:current-layer="g4" />
  <g
     transform="matrix(1.314,0,0,1.314,-187.3732,32.402883)"
     id="g4">
    <g
       data-paper-data="{&quot;wickUUID&quot;:&quot;6595fa1b-99c4-4ba5-8c96-fcc9d0ca11b2&quot;,&quot;wickType&quot;:&quot;clipsandpaths&quot;}"
       fill="none"
       fill-rule="nonzero"
       stroke="#997b5e"
       stroke-width="1"
       stroke-linecap="round"
       stroke-linejoin="miter"
       stroke-miterlimit="10"
       stroke-dasharray="none"
       stroke-dashoffset="0"
       font-family="none"
       font-weight="none"
       font-size="none"
       text-anchor="none"
       style="display:inline;mix-blend-mode:normal;fill-opacity:1;fill:url(#linearGradient1)"
       id="g2"
       transform="translate(144.74189,-25.559544)"
       inkscape:transform-center-x="-153.54465"
       inkscape:transform-center-y="32.403283">
      <path
         d="m 7.26027,472.4962 c 2.41601,-23.99897 4.45704,-53.4862 6.06538,-86.15302 0.57198,0.11983 1.11357,0.1855 1.59944,0.1855 3.135,0 4.403,-1.507 6.61,-7.852 1.438,-4.135 1.716,-5.965 1.385,-9.129 -0.463,-4.428 -0.301,-4.594 6.449,-6.649 7.707,-2.345 8.563,-5.385 2.94,-10.44 -3.93273,-3.53602 -12.16864,-8.49393 -17.13487,-10.36272 3.22803,-92.52481 3.25609,-200.25466 -0.98244,-280.52487 1.07651,-0.20912 2.18797,-0.42378 3.22775,-0.62231 L 18.29925,60.803 c 5.39333,-1.021 24.50606,-2.61883 31.35339,-2.62116 0.44573,-1.3e-4 0.88376,-0.07011 1.2996,-0.18338 1.2765,-0.02882 2.55925,-0.04424 3.84986,-0.04424 1.79428,0 4.93301,-0.19256 7.54462,0.20737 -0.91254,-0.29144 -1.88584,-0.48645 -2.7759,-0.68424 -2.27208,-0.50491 -4.392,-1.11363 -6.53272,-1.65343 -0.30151,-0.08583 -0.67026,-0.17606 -1.09467,-0.26853 -1.69051,-0.40157 -3.41197,-0.74253 -5.24815,-0.93927 -4.86378,-0.52112 -9.42932,-0.79119 -14.30615,-0.95375 -2.79733,-0.09324 -5.42353,-0.11973 -7.98037,8.1e-4 -1.12709,0.02409 -2.03421,0.06889 -2.62218,0.13684 -0.35493,0.04103 -0.80454,0.10397 -1.29738,0.17858 -2.20462,0.25782 -4.39629,0.66079 -6.64376,1.26316 C 12.8726,38.07885 11.69593,22.27284 10.30441,8.26484 l 636.40503,2.76698 c 0.7323,1.2579 2.11017,2.17964 3.87025,2.17919 1.555,0 3.364,1.399 7.626,5.898 3.073,3.244 7.011,7.782 8.751,10.084 1.741,2.302 5.424,6.864 8.185,10.137 2.76,3.273 6.148,8.053 7.527,10.622 3.57784,6.66434 13.98152,21.80759 19.066,27.81846 -2.96763,42.69151 -4.52282,92.17437 -4.66557,142.57828 -1.42024,0.42017 -3.46278,0.62509 -6.1641,0.62509 -7.731,0 -10.36,4.731 -5.231,9.411 1.438,1.312 4.263,3.241 6.279,4.288 1.58879,0.82475 3.64883,2.11702 5.12325,3.19102 0.015,4.13362 0.0395,8.26886 0.0735,12.40251 -0.62003,-0.007 -1.43422,-0.0166 -2.35944,-0.0144 -0.0115,-9.6e-4 -0.0231,-0.002 -0.0347,-0.003 -1.24222,-0.1247 -2.92668,-0.0599 -5.37432,0.17976 -0.005,4.4e-4 -0.009,8.9e-4 -0.0139,0.001 -0.3142,0.0248 -0.60828,0.0517 -0.87001,0.0801 -1.32749,0.14361 -2.90643,0.47545 -3.51042,0.73285 -0.93263,0.31649 -1.61423,0.73193 -1.88646,1.2764 -0.30653,0.61305 1.02442,0.92126 1.60565,1.28453 1.66702,1.04189 3.46197,1.65488 5.28615,2.15492 0.56577,0.181 1.12683,0.34881 1.64576,0.49008 0.326,0.0888 0.65128,0.17819 0.96868,0.26621 0.14304,0.0399 0.28521,0.0798 0.42587,0.11947 1.50404,0.44519 3.1419,0.98944 4.19444,1.40702 0.88981,79.71862 5.29967,158.07431 13.22962,211.97131 z M 63.62423,58.66953 c 0.76564,0.38282 2.98964,1.55903 2.38435,0.95374 -0.79307,-0.79307 -2.13769,-1.22828 -3.66186,-1.46168 0.44595,0.14242 0.87739,0.30788 1.27751,0.50794 z m 632.82099,191.90101 c -0.007,-0.003 -0.0149,-0.006 -0.0225,-0.009 l 0.7283,-0.14566 c 10e-4,0.12882 0.002,0.25765 0.003,0.38647 -0.11408,-0.051 -0.22758,-0.0933 -0.33998,-0.12624 l -0.006,-0.0668 z"
         data-paper-data="{&quot;wickUUID&quot;:&quot;c7b12d04-9e64-4461-b6cc-27b9d3583cfc&quot;,&quot;wickType&quot;:&quot;path&quot;}"
         fill="#e4c2a0"
         id="path1"
         style="fill:url(#linearGradient2);fill-opacity:1" />
      <path
         d="m 647.32524,10.71438 c 0,0 6.93958,3.5745 11.20158,8.0735 3.073,3.244 7.011,7.782 8.751,10.084 0.19894,0.26304 0.42323,0.5556 0.66861,0.87236 0.40831,0.50428 0.8202,1.01665 1.23528,1.53671 1.10208,1.38074 2.44428,3.05701 3.71059,4.63484 0.88785,1.08182 1.76812,2.14189 2.57052,3.09309 2.76,3.273 6.148,8.053 7.527,10.622 0.14768,0.27508 0.30699,0.56461 0.47708,0.86734 0.29518,0.49249 0.59547,1.00055 0.90257,1.52664 2.53433,4.34167 8.74754,13.62467 12.60421,18.83167 0.10858,0.14658 0.21344,0.29636 0.31464,0.44845 1.70567,2.31956 3.28144,4.36687 4.5528,5.88891 l -0.001,0.09704 c -0.8277,-0.16764 -1.69451,-0.35592 -2.59612,-0.56158 -1.075,-0.20213 -5.34428,-1.25934 -17.40811,-4.35174 -15.88867,-4.07333 -23.20563,-5.30595 -31.7203,-5.34428 l -3.20176,-0.03088 c -1.06907,0.09431 -2.09147,0.23693 -3.0603,0.43315 l 0.15655,-2.7378 -0.0435,-0.26349 c 0.0639,-0.61187 0.15589,-1.84406 0.23977,-3.16833 l 0.13194,-2.30735 c 0.13872,-2.59814 0.71499,-12.8323 1.32203,-23.48398 0.637,-11.17133 0.86126,-15.84172 0.86126,-16.54739 0,-0.29434 0.35208,-5.63838 0.44205,-5.88061 l 0.12013,-2.10083 0.0918,-0.0037 c 0.35879,0.53637 0.84046,0.99993 1.42227,1.34011 0.53659,0.18625 1.4715,0.44038 2.19334,0.60646 0.0365,7.9e-4 -3.46552,-2.17432 -3.46552,-2.17432 z"
         data-paper-data="{&quot;wickUUID&quot;:&quot;e989bb2c-c102-4086-bd6c-1038a0866f08&quot;,&quot;wickType&quot;:&quot;path&quot;}"
         fill="#efd7c0"
         id="path2"
         style="fill-opacity:1;fill:url(#linearGradient1)" />
    </g>
  </g>
</svg>
