<?xml version="1.0" encoding="UTF-8" standalone="no"?>
<!-- Created with Inkscape (http://www.inkscape.org/) -->

<svg
   width="210mm"
   height="297mm"
   viewBox="0 0 210 297"
   version="1.1"
   id="svg1"
   inkscape:version="1.4.3 (0d15f75042, 2025-12-25)"
   sodipodi:docname="sideNavBar.svg"
   xmlns:inkscape="http://www.inkscape.org/namespaces/inkscape"
   xmlns:sodipodi="http://sodipodi.sourceforge.net/DTD/sodipodi-0.dtd"
   xmlns="http://www.w3.org/2000/svg"
   xmlns:svg="http://www.w3.org/2000/svg">
  <sodipodi:namedview
     id="namedview1"
     pagecolor="#ffffff"
     bordercolor="#000000"
     borderopacity="0.25"
     inkscape:showpageshadow="2"
     inkscape:pageopacity="0.0"
     inkscape:pagecheckerboard="0"
     inkscape:deskcolor="#d1d1d1"
     inkscape:document-units="mm"
     inkscape:zoom="0.70555556"
     inkscape:cx="396.14173"
     inkscape:cy="561.25984"
     inkscape:window-width="1920"
     inkscape:window-height="995"
     inkscape:window-x="0"
     inkscape:window-y="0"
     inkscape:window-maximized="1"
     inkscape:current-layer="layer1" />
  <defs
     id="defs1">
    <inkscape:path-effect
       effect="spiro"
       id="path-effect1"
       is_visible="true"
       lpeversion="1" />
    <inkscape:path-effect
       effect="spiro"
       id="path-effect1-7"
       is_visible="true"
       lpeversion="1" />
    <inkscape:path-effect
       effect="spiro"
       id="path-effect1-9"
       is_visible="true"
       lpeversion="1" />
  </defs>
  <g
     inkscape:label="Layer 1"
     inkscape:groupmode="layer"
     id="layer1">
    <path
       style="fill:#ab8900;fill-opacity:1;stroke-width:0.281001"
       d="m 4.1249999,124.875 c 2.0465253,15.03699 7.3554181,29.92336 5.6250001,45 -1.1175478,9.73687 -5.1522056,19.07469 -5.2500001,28.875 -0.070333,7.04825 1.905301,13.94138 3.9731917,20.67983 C 10.541082,226.16827 12.735763,232.96215 13.125,240 c 0.498765,9.01824 -1.994067,17.96877 -1.875,27.00001 0.05036,3.81981 0.577689,7.66043 1.889381,11.24831 1.311692,3.58789 3.434577,6.92071 6.360619,9.37667 2.528755,2.1225 5.604198,3.54746 8.81262,4.32568 3.208421,0.77822 6.549763,0.92421 9.840376,0.65689 6.581227,-0.53463 12.904706,-2.68659 19.222002,-4.60757 9.263711,-2.81693 18.822478,-5.18642 28.500001,-4.875 10.487308,0.33748 20.655121,3.80781 31.125001,4.5 10.74148,0.71014 21.49236,-1.52122 32.25,-1.12501 7.12756,0.26251 14.16934,1.6757 21.29066,2.07317 7.12131,0.39746 14.57243,-0.31368 20.70934,-3.94816 4.14088,-2.45236 7.56304,-6.28194 9,-10.87499 1.09196,-3.49032 1.0134,-7.21956 1.125,-10.875 0.57643,-18.88123 6.47632,-37.36025 6.375,-56.25 -0.10395,-19.37955 -6.52696,-38.37733 -6,-57.75 0.34971,-12.85653 3.7539,-25.43767 4.875,-38.25 0.83942,-9.5932 0.39343,-19.245166 0.375,-28.875 -0.0251,-13.130914 0.74509,-26.291923 -0.375,-39.375001 -0.63165,-7.377866 -1.86375,-14.720153 -1.875,-22.124999 -0.003,-1.747409 0.0625,-3.501592 -0.14478,-5.23667 C 204.39797,13.278252 203.90007,11.540159 202.875,10.125 202.06524,9.0070945 200.94922,8.1277104 199.7129,7.513763 198.47658,6.8998156 197.12182,6.5447336 195.75189,6.3752357 193.01205,6.0362399 190.24187,6.4277595 187.5,6.7499999 175.56518,8.1526517 163.51125,8.2455735 151.5,7.875 121.60475,6.9526657 91.650679,3.1740918 61.875,5.9999998 53.258318,6.8177797 44.649711,8.1887761 35.999999,7.875 32.111121,7.7339275 28.223502,7.2522053 24.339087,7.485866 20.454673,7.7195268 16.477451,8.7443944 13.5,11.25 11.450593,12.974631 9.9846916,15.311574 8.9580052,17.785505 7.9313188,20.259436 7.3186166,22.88254 6.7499999,25.5 c -1.5540983,7.153834 -2.8171149,14.431827 -2.625,21.75 0.2077083,7.912166 2.1123753,15.711305 2.25,23.625 0.1311951,7.543979 -1.3439746,15.009476 -2.25,22.5 -1.2642972,10.45252 -1.4198606,21.06747 0,31.5 z"
       id="path1-7"
       inkscape:path-effect="#path-effect1-9"
       inkscape:original-d="m 4.1249999,124.875 c 0,10.5 3.7500001,29.875 5.6250001,45 C 11.625,185 6.2499999,189.25 4.4999999,198.75 2.75,208.25 10.25,226.125 13.125,240 16,253.875 12,258.125 11.25,267.00001 c -0.75,8.875 5.375,13.49999 8.25,20.62498 2.875,7.12499 25.25,0.25001 37.874998,0.375 12.625001,0.12501 19.000002,-3.24999 28.500001,-4.875 9.5,-1.625 20.750001,3 31.125001,4.5 10.375,1.5 21.625,-0.875 32.25,-1.12501 10.625,-0.24997 27.875,-1.12498 42,-1.87499 14.125,-0.74999 6,-7.24998 9,-10.87499 3,-3.625 0.75,-7.25 1.125,-10.875 0.375,-3.625 4.25,-37.5 6.375,-56.25 2.125,-18.75 -4,-38.5 -6,-57.75 -2,-19.25 3.25,-25.5 4.875,-38.25 C 208.25,97.874999 206.875,91.124999 207,81.75 207.125,72.375 206.75,55.749999 206.625,42.374999 206.5,29 205.375,27.5 204.75,20.25 204.125,13 203.5,13.625 202.875,10.125 202.25,6.6249999 192.375,7.9999998 187.5,6.7499999 182.625,5.5 163.5,7.5 151.5,7.875 139.5,8.2499998 91.749998,6.7499999 61.875,5.9999998 31.999999,5.25 44.75,7.1249999 35.999999,7.875 27.250001,8.6249998 21,10.25 13.5,11.25 c -7.5000002,1 -4.5000001,9.5 -6.7500001,14.25 -2.25,4.75 -1.7499999,14.499999 -2.625,21.75 -0.8749998,7.249999 1.5000002,15.75 2.25,23.625 0.75,7.875 -1.4999999,14.999999 -2.25,22.5 -0.7499998,7.5 0,21 0,31.5 z"
       transform="matrix(0.98989166,0,0,1.0068562,1.6972501,0.94929)" />
    <path
       style="fill:#d4aa00;stroke-width:0.281001"
       d="m 4.1249999,124.875 c 2.0465253,15.03699 7.3554181,29.92336 5.6250001,45 -1.1175478,9.73687 -5.1522056,19.07469 -5.2500001,28.875 -0.070333,7.04825 1.905301,13.94138 3.9731917,20.67983 C 10.541082,226.16827 12.735763,232.96215 13.125,240 c 0.498765,9.01824 -1.994067,17.96877 -1.875,27.00001 0.05036,3.81981 0.577689,7.66043 1.889381,11.24831 1.311692,3.58789 3.434577,6.92071 6.360619,9.37667 2.528755,2.1225 5.604198,3.54746 8.81262,4.32568 3.208421,0.77822 6.549763,0.92421 9.840376,0.65689 6.581227,-0.53463 12.904706,-2.68659 19.222002,-4.60757 9.263711,-2.81693 18.822478,-5.18642 28.500001,-4.875 10.487308,0.33748 20.655121,3.80781 31.125001,4.5 10.74148,0.71014 21.49236,-1.52122 32.25,-1.12501 7.12756,0.26251 14.16934,1.6757 21.29066,2.07317 7.12131,0.39746 14.57243,-0.31368 20.70934,-3.94816 4.14088,-2.45236 7.56304,-6.28194 9,-10.87499 1.09196,-3.49032 1.0134,-7.21956 1.125,-10.875 0.57643,-18.88123 6.47632,-37.36025 6.375,-56.25 -0.10395,-19.37955 -6.52696,-38.37733 -6,-57.75 0.34971,-12.85653 3.7539,-25.43767 4.875,-38.25 0.83942,-9.5932 0.39343,-19.245166 0.375,-28.875 -0.0251,-13.130914 0.74509,-26.291923 -0.375,-39.375001 -0.63165,-7.377866 -1.86375,-14.720153 -1.875,-22.124999 -0.003,-1.747409 0.0625,-3.501592 -0.14478,-5.23667 C 204.39797,13.278252 203.90007,11.540159 202.875,10.125 202.06524,9.0070945 200.94922,8.1277104 199.7129,7.513763 198.47658,6.8998156 197.12182,6.5447336 195.75189,6.3752357 193.01205,6.0362399 190.24187,6.4277595 187.5,6.7499999 175.56518,8.1526517 163.51125,8.2455735 151.5,7.875 121.60475,6.9526657 91.650679,3.1740918 61.875,5.9999998 53.258318,6.8177797 44.649711,8.1887761 35.999999,7.875 32.111121,7.7339275 28.223502,7.2522053 24.339087,7.485866 20.454673,7.7195268 16.477451,8.7443944 13.5,11.25 11.450593,12.974631 9.9846916,15.311574 8.9580052,17.785505 7.9313188,20.259436 7.3186166,22.88254 6.7499999,25.5 c -1.5540983,7.153834 -2.8171149,14.431827 -2.625,21.75 0.2077083,7.912166 2.1123753,15.711305 2.25,23.625 0.1311951,7.543979 -1.3439746,15.009476 -2.25,22.5 -1.2642972,10.45252 -1.4198606,21.06747 0,31.5 z"
       id="path1"
       inkscape:path-effect="#path-effect1"
       inkscape:original-d="m 4.1249999,124.875 c 0,10.5 3.7500001,29.875 5.6250001,45 C 11.625,185 6.2499999,189.25 4.4999999,198.75 2.75,208.25 10.25,226.125 13.125,240 16,253.875 12,258.125 11.25,267.00001 c -0.75,8.875 5.375,13.49999 8.25,20.62498 2.875,7.12499 25.25,0.25001 37.874998,0.375 12.625001,0.12501 19.000002,-3.24999 28.500001,-4.875 9.5,-1.625 20.750001,3 31.125001,4.5 10.375,1.5 21.625,-0.875 32.25,-1.12501 10.625,-0.24997 27.875,-1.12498 42,-1.87499 14.125,-0.74999 6,-7.24998 9,-10.87499 3,-3.625 0.75,-7.25 1.125,-10.875 0.375,-3.625 4.25,-37.5 6.375,-56.25 2.125,-18.75 -4,-38.5 -6,-57.75 -2,-19.25 3.25,-25.5 4.875,-38.25 C 208.25,97.874999 206.875,91.124999 207,81.75 207.125,72.375 206.75,55.749999 206.625,42.374999 206.5,29 205.375,27.5 204.75,20.25 204.125,13 203.5,13.625 202.875,10.125 202.25,6.6249999 192.375,7.9999998 187.5,6.7499999 182.625,5.5 163.5,7.5 151.5,7.875 139.5,8.2499998 91.749998,6.7499999 61.875,5.9999998 31.999999,5.25 44.75,7.1249999 35.999999,7.875 27.250001,8.6249998 21,10.25 13.5,11.25 c -7.5000002,1 -4.5000001,9.5 -6.7500001,14.25 -2.25,4.75 -1.7499999,14.499999 -2.625,21.75 -0.8749998,7.249999 1.5000002,15.75 2.25,23.625 0.75,7.875 -1.4999999,14.999999 -2.25,22.5 -0.7499998,7.5 0,21 0,31.5 z"
       transform="matrix(0.98989166,0,0,1.0068562,-0.8999791,-2.7570269)" />
    <path
       style="fill:#fcecac;fill-opacity:1;stroke-width:0.281001"
       d="m 4.1249999,124.875 c 2.0465253,15.03699 7.3554181,29.92336 5.6250001,45 -1.1175478,9.73687 -5.1522056,19.07469 -5.2500001,28.875 -0.070333,7.04825 1.905301,13.94138 3.9731917,20.67983 C 10.541082,226.16827 12.735763,232.96215 13.125,240 c 0.498765,9.01824 -1.994067,17.96877 -1.875,27.00001 0.05036,3.81981 0.577689,7.66043 1.889381,11.24831 1.311692,3.58789 3.434577,6.92071 6.360619,9.37667 2.528755,2.1225 5.604198,3.54746 8.81262,4.32568 3.208421,0.77822 6.549763,0.92421 9.840376,0.65689 6.581227,-0.53463 12.904706,-2.68659 19.222002,-4.60757 9.263711,-2.81693 18.822478,-5.18642 28.500001,-4.875 10.487308,0.33748 20.655121,3.80781 31.125001,4.5 10.74148,0.71014 21.49236,-1.52122 32.25,-1.12501 7.12756,0.26251 14.16934,1.6757 21.29066,2.07317 7.12131,0.39746 14.57243,-0.31368 20.70934,-3.94816 4.14088,-2.45236 7.56304,-6.28194 9,-10.87499 1.09196,-3.49032 1.0134,-7.21956 1.125,-10.875 0.57643,-18.88123 6.47632,-37.36025 6.375,-56.25 -0.10395,-19.37955 -6.52696,-38.37733 -6,-57.75 0.34971,-12.85653 3.7539,-25.43767 4.875,-38.25 0.83942,-9.5932 0.39343,-19.245166 0.375,-28.875 -0.0251,-13.130914 0.74509,-26.291923 -0.375,-39.375001 -0.63165,-7.377866 -1.86375,-14.720153 -1.875,-22.124999 -0.003,-1.747409 0.0625,-3.501592 -0.14478,-5.23667 C 204.39797,13.278252 203.90007,11.540159 202.875,10.125 202.06524,9.0070945 200.94922,8.1277104 199.7129,7.513763 198.47658,6.8998156 197.12182,6.5447336 195.75189,6.3752357 193.01205,6.0362399 190.24187,6.4277595 187.5,6.7499999 175.56518,8.1526517 163.51125,8.2455735 151.5,7.875 121.60475,6.9526657 91.650679,3.1740918 61.875,5.9999998 53.258318,6.8177797 44.649711,8.1887761 35.999999,7.875 32.111121,7.7339275 28.223502,7.2522053 24.339087,7.485866 20.454673,7.7195268 16.477451,8.7443944 13.5,11.25 11.450593,12.974631 9.9846916,15.311574 8.9580052,17.785505 7.9313188,20.259436 7.3186166,22.88254 6.7499999,25.5 c -1.5540983,7.153834 -2.8171149,14.431827 -2.625,21.75 0.2077083,7.912166 2.1123753,15.711305 2.25,23.625 0.1311951,7.543979 -1.3439746,15.009476 -2.25,22.5 -1.2642972,10.45252 -1.4198606,21.06747 0,31.5 z"
       id="path1-5"
       inkscape:path-effect="#path-effect1-7"
       inkscape:original-d="m 4.1249999,124.875 c 0,10.5 3.7500001,29.875 5.6250001,45 C 11.625,185 6.2499999,189.25 4.4999999,198.75 2.75,208.25 10.25,226.125 13.125,240 16,253.875 12,258.125 11.25,267.00001 c -0.75,8.875 5.375,13.49999 8.25,20.62498 2.875,7.12499 25.25,0.25001 37.874998,0.375 12.625001,0.12501 19.000002,-3.24999 28.500001,-4.875 9.5,-1.625 20.750001,3 31.125001,4.5 10.375,1.5 21.625,-0.875 32.25,-1.12501 10.625,-0.24997 27.875,-1.12498 42,-1.87499 14.125,-0.74999 6,-7.24998 9,-10.87499 3,-3.625 0.75,-7.25 1.125,-10.875 0.375,-3.625 4.25,-37.5 6.375,-56.25 2.125,-18.75 -4,-38.5 -6,-57.75 -2,-19.25 3.25,-25.5 4.875,-38.25 C 208.25,97.874999 206.875,91.124999 207,81.75 207.125,72.375 206.75,55.749999 206.625,42.374999 206.5,29 205.375,27.5 204.75,20.25 204.125,13 203.5,13.625 202.875,10.125 202.25,6.6249999 192.375,7.9999998 187.5,6.7499999 182.625,5.5 163.5,7.5 151.5,7.875 139.5,8.2499998 91.749998,6.7499999 61.875,5.9999998 31.999999,5.25 44.75,7.1249999 35.999999,7.875 27.250001,8.6249998 21,10.25 13.5,11.25 c -7.5000002,1 -4.5000001,9.5 -6.7500001,14.25 -2.25,4.75 -1.7499999,14.499999 -2.625,21.75 -0.8749998,7.249999 1.5000002,15.75 2.25,23.625 0.75,7.875 -1.4999999,14.999999 -2.25,22.5 -0.7499998,7.5 0,21 0,31.5 z"
       transform="matrix(0.90009705,0,0,0.93257607,9.958443,5.9017048)" />
  </g>
</svg>
