<?xml version="1.0" encoding="UTF-8" standalone="no"?>
<svg
   class="svg-icon"
   style="width: 1em; height: 1em;vertical-align: middle;fill: currentColor;overflow: hidden;"
   viewBox="0 0 1024 1024"
   version="1.1"
   id="svg13"
   sodipodi:docname="books-28.svg"
   inkscape:version="1.3 (0e150ed6c4, 2023-07-21)"
   xmlns:inkscape="http://www.inkscape.org/namespaces/inkscape"
   xmlns:sodipodi="http://sodipodi.sourceforge.net/DTD/sodipodi-0.dtd"
   xmlns="http://www.w3.org/2000/svg"
   xmlns:svg="http://www.w3.org/2000/svg">
  <defs
     id="defs13" />
  <sodipodi:namedview
     id="namedview13"
     pagecolor="#ffffff"
     bordercolor="#000000"
     borderopacity="0.25"
     inkscape:showpageshadow="2"
     inkscape:pageopacity="0.0"
     inkscape:pagecheckerboard="0"
     inkscape:deskcolor="#d1d1d1"
     inkscape:zoom="0.70703125"
     inkscape:cx="512"
     inkscape:cy="511.29282"
     inkscape:window-width="1920"
     inkscape:window-height="1008"
     inkscape:window-x="0"
     inkscape:window-y="0"
     inkscape:window-maximized="1"
     inkscape:current-layer="svg13" />
  <path
     d="m 440.60748,151.62125 h 252.6365 v 702.36408 h -252.6365 z"
     fill="#e72119"
     id="path1"
     style="stroke-width:1.25039" />
  <path
     d="M 507.74649,217.37595 H 625.93193 V 541.13137 H 507.74649 Z"
     fill="#ffffff"
     id="path2"
     style="stroke-width:1.25039" />
  <path
     d="m 631.29613,711.22841 c 0,36.33812 -28.89747,65.92774 -64.54344,65.92774 -35.64597,0 -64.54344,-29.41657 -64.54344,-65.92774 0,-36.33812 28.89747,-65.92775 64.54344,-65.92775 35.81901,0.17304 64.54344,29.58963 64.54344,65.92775 z"
     fill="#a5b8ba"
     id="path3"
     style="stroke-width:1.25039" />
  <path
     d="m 615.20352,711.22841 c 0,27.34012 -21.62983,49.31603 -48.45083,49.31603 -26.64796,0 -48.45084,-22.14896 -48.45084,-49.31603 0,-27.34011 21.62985,-49.31603 48.45084,-49.31604 26.821,0 48.45083,22.14897 48.45083,49.31604 z"
     fill="#4e4d4d"
     id="path4"
     style="stroke-width:1.25039" />
  <path
     d="M 254.59088,845.67948 10.952381,777.67527 192.81606,100.05572 436.45455,168.23296 Z"
     fill="#f5d645"
     id="path5"
     style="stroke-width:1.25039" />
  <path
     d="m 270.85651,525.90396 -114.0325,-31.83912 83.75073,-312.33485 114.03251,32.01215 z"
     fill="#ffffff"
     id="path6"
     style="stroke-width:1.25039" />
  <path
     d="m 231.92281,691.502 c -9.3441,35.12686 -44.99006,55.71845 -79.25172,46.20133 -34.43471,-9.69017 -54.507205,-45.85526 -45.16311,-80.98211 9.34409,-35.12686 44.99006,-55.71847 79.25173,-46.20133 34.4347,9.69016 54.68023,45.85526 45.1631,80.98211 z"
     fill="#a5b8ba"
     id="path7"
     style="stroke-width:1.25039" />
  <path
     d="m 216.34932,687.17603 c -7.09459,26.30188 -33.74255,41.87536 -59.52531,34.60774 -25.78277,-7.26762 -41.01018,-34.4347 -33.91558,-60.73659 7.09458,-26.30188 33.74254,-41.87536 59.5253,-34.60773 25.78278,7.26762 41.01018,34.4347 33.91559,60.73658 z"
     fill="#4e4d4d"
     id="path8"
     style="stroke-width:1.25039" />
  <path
     d="M 695.83956,151.62125 H 948.47607 V 853.98533 H 695.83956 Z"
     fill="#298291"
     id="path9"
     style="stroke-width:1.25039" />
  <path
     d="M 763.15162,217.37595 H 881.51009 V 541.13137 H 763.15162 Z"
     fill="#ffffff"
     id="path10"
     style="stroke-width:1.25039" />
  <path
     d="m 886.70124,711.22841 c 0,36.33812 -28.89745,65.92774 -64.54343,65.92774 -35.64596,0 -64.54343,-29.41657 -64.54343,-65.92774 0,-36.33812 28.89747,-65.92775 64.54343,-65.92775 35.64598,0.17304 64.54343,29.58963 64.54343,65.92775 z"
     fill="#a5b8ba"
     id="path11"
     style="stroke-width:1.25039" />
  <path
     d="m 870.60865,711.22841 c 0,27.34012 -21.62984,49.31603 -48.45084,49.31603 -26.64796,0 -48.45084,-22.14896 -48.45084,-49.31603 0,-27.34011 21.62984,-49.31603 48.45084,-49.31604 26.821,0 48.45084,22.14897 48.45084,49.31604 z"
     fill="#4e4d4d"
     id="path12"
     style="stroke-width:1.25039" />
  <path
     d="M 61.652718,854.33142 H 1014.5768 v 59.17923 H 61.652718 Z"
     fill="#ddcba8"
     id="path13"
     style="stroke-width:1.25039" />
</svg>
