<?xml version="1.0" encoding="UTF-8" standalone="no"?>
<svg
   class="svg-icon"
   style="width: 1em;height: 1em;vertical-align: middle;fill: currentColor;overflow: hidden;"
   viewBox="0 0 1024 1024"
   version="1.1"
   id="svg3"
   sodipodi:docname="icon-user-7.svg"
   inkscape:version="1.3 (0e150ed6c4, 2023-07-21)"
   xmlns:inkscape="http://www.inkscape.org/namespaces/inkscape"
   xmlns:sodipodi="http://sodipodi.sourceforge.net/DTD/sodipodi-0.dtd"
   xmlns="http://www.w3.org/2000/svg"
   xmlns:svg="http://www.w3.org/2000/svg">
  <defs
     id="defs3" />
  <sodipodi:namedview
     id="namedview3"
     pagecolor="#ffffff"
     bordercolor="#000000"
     borderopacity="0.25"
     inkscape:showpageshadow="2"
     inkscape:pageopacity="0.0"
     inkscape:pagecheckerboard="0"
     inkscape:deskcolor="#d1d1d1"
     inkscape:zoom="0.70703125"
     inkscape:cx="512"
     inkscape:cy="511.29282"
     inkscape:window-width="1920"
     inkscape:window-height="1008"
     inkscape:window-x="0"
     inkscape:window-y="0"
     inkscape:window-maximized="1"
     inkscape:current-layer="svg3" />
  <path
     style="fill:#ffffff;stroke-width:2.82873;stroke-linecap:round;stroke-linejoin:round"
     d="M 473.59409,1017.5075 C 364.91472,1009.6661 259.9781,966.5511 178.38367,896.21537 c -6.90556,-5.95271 -14.55115,-12.16879 -16.99021,-13.81352 -2.43906,-1.64473 -7.60894,-6.73172 -11.48864,-11.30443 -3.87969,-4.57271 -11.47045,-13.0922 -16.86834,-18.93223 C 41.238992,752.84873 -8.2723382,610.46404 2.1851253,475.86283 11.818292,351.87141 63.516951,239.0189 150.56074,151.97511 226.40656,76.129288 321.05572,27.44421 426.44942,10.065112 456.87842,5.047463 476.16416,3.5463539 510.27227,3.5407446 608.18175,3.5246429 701.22622,31.238222 783.96388,85.060621 965.21123,202.96543 1051.9545,419.85723 1001.9443,630.09602 981.38979,716.50547 938.86956,794.47866 875.31749,862.30312 828.8197,911.92678 760.62857,957.4924 693.03867,984.10265 624.87017,1010.9407 546.958,1022.8008 473.59409,1017.5075 Z m 72.49886,-69.20087 c 64.67427,-5.10354 129.14026,-25.66854 185.55515,-59.19309 21.92762,-13.0305 51.8501,-33.72013 61.19489,-42.31269 l 7.51583,-6.91085 -1.91128,-4.82898 c -4.06288,-10.2651 -18.7256,-38.58201 -26.41414,-51.01146 -11.85673,-19.16784 -27.53758,-37.92071 -49.20693,-58.84707 -62.04094,-59.91369 -149.03719,-91.37492 -236.02059,-85.35422 -95.09892,6.58241 -185.04768,59.04234 -237.91953,138.75946 -11.01473,16.60739 -26.35399,45.23273 -30.42182,56.77163 -1.76755,5.01386 -1.68951,5.25689 3.00961,9.37349 56.66775,49.64302 132.91387,85.10304 213.44299,99.26657 30.38669,5.34444 75.65592,7.09014 111.17582,4.28721 z M 174.97104,775.41895 c 27.6309,-54.23781 73.18813,-104.62246 126.67742,-140.1006 17.85218,-11.84092 51.2215,-29.24802 69.97074,-36.50025 6.80382,-2.63172 12.35432,-5.10318 12.33447,-5.49213 -0.0199,-0.38895 -3.90166,-3.51401 -8.62619,-6.94455 -13.22102,-9.59997 -31.75226,-27.78513 -42.58149,-41.78627 -61.76504,-79.85612 -64.51445,-181.51423 -7.24198,-267.76869 11.25618,-16.95223 39.69364,-45.26405 57.01487,-56.763 61.23559,-40.65211 137.92297,-50.59954 203.02808,-26.33557 84.90806,31.6443 143.43031,108.56319 148.96622,195.7942 3.93267,61.96819 -15.44129,119.10947 -55.95583,165.03531 -9.76393,11.06804 -28.60793,28.09037 -40.60924,36.68351 l -4.00162,2.86522 13.98808,5.52232 c 21.29557,8.40722 50.20616,23.63377 69.85549,36.79131 53.4408,35.78491 93.19244,79.31804 124.51994,136.36522 l 8.84128,16.09991 2.67962,-3.37063 c 25.21298,-31.71454 52.95149,-80.45206 65.67867,-115.39962 20.84635,-57.24203 28.81226,-101.34803 28.81226,-159.529 0,-32.38314 -1.70028,-53.06967 -6.45189,-78.49724 C 929.7904,367.44639 906.92737,312.79187 868.58103,256.8899 852.49966,233.4462 842.90157,221.98327 821.04505,200.11803 765.48465,144.53544 704.40826,108.715 629.39227,87.71641 589.40548,76.523247 565.53181,72.985471 522.40243,71.86187 474.00058,70.60091 441.28317,74.075983 400.26519,84.834652 365.55379,93.93916 342.82456,102.47607 312.98474,117.61646 199.65267,175.11988 121.78354,268.07354 87.045065,387.32431 c -11.929556,40.95196 -16.998007,77.46062 -17.01404,122.55414 -0.01588,44.66008 2.963616,69.9765 12.900414,109.61326 13.337222,53.20068 32.708741,95.24907 67.439751,146.38674 12.53397,18.45493 15.69225,22.63417 17.09664,22.62337 0.46285,-0.004 3.83929,-5.89085 7.50321,-13.08287 z M 547.71423,557.90096 c 20.10748,-5.03366 34.5052,-11.26433 50.19875,-21.72373 13.73131,-9.1516 35.14238,-30.50684 43.17247,-43.05989 8.88839,-13.8948 17.40775,-33.80811 21.64974,-50.60457 3.63104,-14.3773 4.13774,-18.89629 4.13774,-36.90224 0,-17.3357 -0.57289,-22.85219 -3.69308,-35.56182 -8.42533,-34.31921 -21.13027,-56.47909 -45.63408,-79.59473 -19.64889,-18.53574 -39.84333,-29.82614 -68.06511,-38.05413 -13.44573,-3.92007 -50.29666,-5.48185 -65.69616,-2.78428 -12.49368,2.18856 -34.60993,9.13745 -43.9171,13.79867 -21.70537,10.87052 -48.87768,34.08436 -60.6163,51.7857 -30.78141,46.41709 -36.18976,101.96134 -14.90609,153.08703 10.26,24.64564 39.76262,58.17317 63.25811,71.88816 37.43913,21.85429 79.07457,27.99878 120.11111,17.72583 z"
     id="path4" />
</svg>
