<?xml version="1.0" encoding="UTF-8" standalone="no"?>
<svg
   class="svg-icon"
   style="width: 1em; height: 1em;vertical-align: middle;fill: currentColor;overflow: hidden;"
   viewBox="0 0 1024 1024"
   version="1.1"
   id="svg1"
   sodipodi:docname="recycle-bin-32.svg"
   inkscape:version="1.3 (0e150ed6c4, 2023-07-21)"
   xmlns:inkscape="http://www.inkscape.org/namespaces/inkscape"
   xmlns:sodipodi="http://sodipodi.sourceforge.net/DTD/sodipodi-0.dtd"
   xmlns="http://www.w3.org/2000/svg"
   xmlns:svg="http://www.w3.org/2000/svg">
  <defs
     id="defs1" />
  <sodipodi:namedview
     id="namedview1"
     pagecolor="#ffffff"
     bordercolor="#000000"
     borderopacity="0.25"
     inkscape:showpageshadow="2"
     inkscape:pageopacity="0.0"
     inkscape:pagecheckerboard="0"
     inkscape:deskcolor="#d1d1d1"
     inkscape:zoom="0.70703125"
     inkscape:cx="512"
     inkscape:cy="511.29282"
     inkscape:window-width="1920"
     inkscape:window-height="1008"
     inkscape:window-x="0"
     inkscape:window-y="0"
     inkscape:window-maximized="1"
     inkscape:current-layer="svg1" />
  <path
     style="fill:#ffffff;stroke-width:2.82873;stroke-linecap:round;stroke-linejoin:round"
     d="m 268.72928,1022.2959 c -17.81721,-2.5215 -41.38027,-12.8888 -55.47832,-24.40967 -17.98132,-14.69419 -32.74033,-38.1954 -38.59093,-61.44949 -2.76882,-11.0051 -2.81473,-16.40892 -2.81473,-331.31492 V 284.99448 h 340.17262 340.17262 l -0.37152,323.53591 -0.37151,323.53591 -3.3235,9.90055 c -10.78579,32.13025 -30.7425,55.60849 -58.90854,69.30345 -25.34574,12.3236 1.08988,11.2164 -272.97238,11.4334 -133.79889,0.1059 -245.18011,-0.078 -247.51381,-0.4078 z M 422.52835,848.29351 c 16.77672,-7.85552 28.78326,-23.24636 32.1701,-41.23794 1.95571,-10.38907 1.96415,-351.98527 0.009,-362.29496 -3.38763,-17.86287 -15.50497,-33.76682 -31.81238,-41.75357 -7.89325,-3.86581 -9.62266,-4.15621 -24.75138,-4.15621 -14.90025,0 -16.93272,0.32794 -24.21957,3.9079 -10.47727,5.14738 -19.26616,13.09308 -24.9514,22.55761 -9.01102,15.00114 -8.76886,9.4632 -8.76886,200.54001 0,188.57383 -0.12396,185.44425 7.88634,199.1128 11.25258,19.20108 29.18281,28.88503 52.17503,28.17924 10.84269,-0.33283 14.14229,-1.05238 22.26316,-4.85488 z m 227.76152,-0.0228 c 17.30197,-8.10144 28.77864,-23.42317 32.10896,-42.8665 1.09782,-6.40939 1.43789,-61.41072 1.14512,-185.20527 -0.46573,-196.92097 0.31908,-182.33281 -10.65393,-198.03926 -6.84349,-9.79558 -16.4344,-17.01922 -28.03326,-21.11396 -13.13276,-4.63626 -31.5896,-3.76976 -43.75179,2.05402 -16.2058,7.76004 -28.4156,23.74976 -31.81238,41.66091 -1.95519,10.30969 -1.94675,351.90589 0.009,362.29496 3.96205,21.0472 18.82199,37.50061 40.28961,44.61 3.47596,1.15112 10.56584,1.72289 18.38674,1.48282 10.85777,-0.3333 14.13817,-1.05044 22.31197,-4.87772 z"
     id="path2" />
  <path
     style="fill:#ffffff;stroke-width:2.82873;stroke-linecap:round;stroke-linejoin:round"
     d="m 113.88479,199.77901 c 0.0156,-14.97459 0.60301,-31.19911 1.30527,-36.05448 3.66272,-25.32393 23.10957,-44.86035 48.2755,-48.49786 4.99781,-0.72239 59.68582,-1.40064 121.52892,-1.50722 71.4391,-0.12312 109.60531,-0.6538 104.66298,-1.45529 -23.79109,-3.85817 -42.47992,-22.841046 -46.83643,-47.573329 -4.0848,-23.189763 9.55337,-47.960238 32.35227,-58.7602118 l 9.53388,-4.5162546 H 512 639.29282 l 9.53388,4.5162546 c 22.94376,10.8685898 36.57682,35.8809348 32.30189,59.2636888 -4.47143,24.457565 -23.03718,43.104712 -46.8464,47.051772 -4.97496,0.82474 32.25026,1.34847 104.72333,1.47337 61.8431,0.10658 116.53111,0.78483 121.52892,1.50722 25.16593,3.63751 44.61278,23.17393 48.2755,48.49786 0.70225,4.85537 1.28962,21.07989 1.30526,36.05448 l 0.0285,27.22651 H 512 113.85635 Z"
     id="path3" />
</svg>
