<?xml version="1.0" encoding="UTF-8" standalone="no"?>
<svg
   class="svg-icon"
   style="width: 1em;height: 1em;vertical-align: middle;fill: currentColor;overflow: hidden;"
   viewBox="0 0 1024 1024"
   version="1.1"
   id="svg2"
   sodipodi:docname="add-277.svg"
   inkscape:version="1.3 (0e150ed6c4, 2023-07-21)"
   xmlns:inkscape="http://www.inkscape.org/namespaces/inkscape"
   xmlns:sodipodi="http://sodipodi.sourceforge.net/DTD/sodipodi-0.dtd"
   xmlns="http://www.w3.org/2000/svg"
   xmlns:svg="http://www.w3.org/2000/svg">
  <defs
     id="defs2" />
  <sodipodi:namedview
     id="namedview2"
     pagecolor="#ffffff"
     bordercolor="#000000"
     borderopacity="0.25"
     inkscape:showpageshadow="2"
     inkscape:pageopacity="0.0"
     inkscape:pagecheckerboard="0"
     inkscape:deskcolor="#d1d1d1"
     inkscape:zoom="0.70703125"
     inkscape:cx="562.91713"
     inkscape:cy="511.29282"
     inkscape:window-width="1920"
     inkscape:window-height="1008"
     inkscape:window-x="0"
     inkscape:window-y="0"
     inkscape:window-maximized="1"
     inkscape:current-layer="svg2" />
  <path
     style="fill:#000000;fill-opacity:0;stroke-width:2.82873;stroke-linecap:round;stroke-linejoin:round"
     d="m 502.09945,1012.4841 c -31.21237,-4.0937 -57.25903,-26.47501 -66.31611,-56.9839 -2.04527,-6.88947 -2.28058,-26.11179 -2.28058,-186.29636 V 590.58961 l -179.9779,-0.40867 C 74.275568,589.77393 73.51534,589.76018 65.736167,586.78575 37.443774,575.96787 20.373265,558.3048 12.699535,531.9081 9.3531938,520.3971 10.337733,496.72734 14.619862,485.74064 21.701581,467.571 37.21575,450.58868 53.989103,442.64577 c 17.01305,-8.05644 8.462609,-7.72864 201.600877,-7.72864 H 433.50276 V 256.29716 c 0,-196.659625 -0.41991,-186.879511 8.72697,-203.258486 6.63938,-11.888861 13.25134,-19.269879 24.06486,-26.863921 14.76966,-10.372329 25.11592,-13.454479 44.99823,-13.404964 14.75596,0.03675 17.21257,0.430661 26.47532,4.245264 24.63774,10.146365 41.24415,28.84304 47.72775,53.73527 1.89819,7.287631 2.17262,30.813727 2.17262,186.254017 V 434.91713 H 765.5813 c 197.12635,0 185.2468,-0.54504 204.10465,9.36448 37.52485,19.71873 51.91125,66.79074 31.91875,104.43712 -9.15246,17.23425 -25.89902,30.9814 -46.20139,37.92646 l -9.19337,3.14487 -179.27071,0.39504 -179.27072,0.39505 v 177.61073 c 0,157.47143 -0.25406,178.59615 -2.24062,186.3011 -6.65722,25.82022 -27.04193,46.74962 -53.62679,55.05972 -7.53409,2.355 -22.69294,3.8517 -29.70165,2.9324 z"
     id="path3" />
  <path
     style="fill:#ffffff;fill-opacity:0;stroke-width:2.82873;stroke-linecap:round;stroke-linejoin:round"
     d="m 502.09945,1012.4841 c -31.21237,-4.0937 -57.25903,-26.47501 -66.31611,-56.9839 -2.04527,-6.88947 -2.28058,-26.11179 -2.28058,-186.29636 V 590.58961 l -179.9779,-0.40867 C 74.275568,589.77393 73.51534,589.76018 65.736167,586.78575 37.443774,575.96787 20.373265,558.3048 12.699535,531.9081 9.3531938,520.3971 10.337733,496.72734 14.619862,485.74064 21.701581,467.571 37.21575,450.58868 53.989103,442.64577 c 17.01305,-8.05644 8.462609,-7.72864 201.600877,-7.72864 H 433.50276 V 256.29716 c 0,-196.659625 -0.41991,-186.879511 8.72697,-203.258486 6.63938,-11.888861 13.25134,-19.269879 24.06486,-26.863921 14.76966,-10.372329 25.11592,-13.454479 44.99823,-13.404964 14.75596,0.03675 17.21257,0.430661 26.47532,4.245264 24.63774,10.146365 41.24415,28.84304 47.72775,53.73527 1.89819,7.287631 2.17262,30.813727 2.17262,186.254017 V 434.91713 H 765.5813 c 197.12635,0 185.2468,-0.54504 204.10465,9.36448 37.52485,19.71873 51.91125,66.79074 31.91875,104.43712 -9.15246,17.23425 -25.89902,30.9814 -46.20139,37.92646 l -9.19337,3.14487 -179.27071,0.39504 -179.27072,0.39505 v 177.61073 c 0,157.47143 -0.25406,178.59615 -2.24062,186.3011 -6.65722,25.82022 -27.04193,46.74962 -53.62679,55.05972 -7.53409,2.355 -22.69294,3.8517 -29.70165,2.9324 z"
     id="path4" />
  <path
     style="fill:#ffffff;fill-opacity:0;stroke-width:2.82873;stroke-linecap:round;stroke-linejoin:round"
     d="m 502.09945,1012.4841 c -31.21237,-4.0937 -57.25903,-26.47501 -66.31611,-56.9839 -2.04527,-6.88947 -2.28058,-26.11179 -2.28058,-186.29636 V 590.58961 l -179.9779,-0.40867 C 74.275568,589.77393 73.51534,589.76018 65.736167,586.78575 37.443774,575.96787 20.373265,558.3048 12.699535,531.9081 9.3531938,520.3971 10.337733,496.72734 14.619862,485.74064 21.701581,467.571 37.21575,450.58868 53.989103,442.64577 c 17.01305,-8.05644 8.462609,-7.72864 201.600877,-7.72864 H 433.50276 V 256.29716 c 0,-196.659625 -0.41991,-186.879511 8.72697,-203.258486 6.63938,-11.888861 13.25134,-19.269879 24.06486,-26.863921 14.76966,-10.372329 25.11592,-13.454479 44.99823,-13.404964 14.75596,0.03675 17.21257,0.430661 26.47532,4.245264 24.63774,10.146365 41.24415,28.84304 47.72775,53.73527 1.89819,7.287631 2.17262,30.813727 2.17262,186.254017 V 434.91713 H 765.5813 c 197.12635,0 185.2468,-0.54504 204.10465,9.36448 37.52485,19.71873 51.91125,66.79074 31.91875,104.43712 -9.15246,17.23425 -25.89902,30.9814 -46.20139,37.92646 l -9.19337,3.14487 -179.27071,0.39504 -179.27072,0.39505 v 177.61073 c 0,157.47143 -0.25406,178.59615 -2.24062,186.3011 -6.65722,25.82022 -27.04193,46.74962 -53.62679,55.05972 -7.53409,2.355 -22.69294,3.8517 -29.70165,2.9324 z"
     id="path5" />
  <path
     style="display:inline;fill:#ffffff;fill-opacity:1;stroke-width:2.82873;stroke-linecap:round;stroke-linejoin:round"
     d="m 502.09945,1012.4841 c -31.21237,-4.0937 -57.25903,-26.47501 -66.31611,-56.9839 -2.04527,-6.88947 -2.28058,-26.11179 -2.28058,-186.29636 V 590.58961 l -179.9779,-0.40867 C 74.275568,589.77393 73.51534,589.76018 65.736167,586.78575 37.443774,575.96787 20.373265,558.3048 12.699535,531.9081 9.3531938,520.3971 10.337733,496.72734 14.619862,485.74064 21.701581,467.571 37.21575,450.58868 53.989103,442.64577 c 17.01305,-8.05644 8.462609,-7.72864 201.600877,-7.72864 H 433.50276 V 256.29716 c 0,-196.659625 -0.41991,-186.879511 8.72697,-203.258486 6.63938,-11.888861 13.25134,-19.269879 24.06486,-26.863921 14.76966,-10.372329 25.11592,-13.454479 44.99823,-13.404964 14.75596,0.03675 17.21257,0.430661 26.47532,4.245264 24.63774,10.146365 41.24415,28.84304 47.72775,53.73527 1.89819,7.287631 2.17262,30.813727 2.17262,186.254017 V 434.91713 H 765.5813 c 197.12635,0 185.2468,-0.54504 204.10465,9.36448 37.52485,19.71873 51.91125,66.79074 31.91875,104.43712 -9.15246,17.23425 -25.89902,30.9814 -46.20139,37.92646 l -9.19337,3.14487 -179.27071,0.39504 -179.27072,0.39505 v 177.61073 c 0,157.47143 -0.25406,178.59615 -2.24062,186.3011 -6.65722,25.82022 -27.04193,46.74962 -53.62679,55.05972 -7.53409,2.355 -22.69294,3.8517 -29.70165,2.9324 z"
     id="path6" />
  <path
     style="fill:#ffffff;fill-opacity:1;stroke-width:2.82873;stroke-linecap:round;stroke-linejoin:round"
     d="m 492.29477,1009.9093 c -18.50568,-5.3399 -34.72896,-17.21355 -45.05034,-32.97197 -12.11796,-18.50139 -11.39976,-12.86032 -12.46551,-97.90971 -0.52151,-41.61768 -1.02198,-123.56243 -1.11218,-182.09944 l -0.16398,-106.43094 -10.25414,-0.17315 c -5.63978,-0.0952 -87.327,-0.57258 -181.52717,-1.06077 L 70.448415,588.37569 56.981955,581.68958 C 35.36328,570.95587 22.566511,557.27412 15.552605,537.39516 10.858976,524.09237 10.570502,501.36894 14.93093,488.42521 c 8.563832,-25.42135 33.072811,-47.06642 57.369337,-50.66563 5.920919,-0.87712 78.469973,-1.80572 185.235593,-2.37096 l 175.50272,-0.92914 0.97586,-176.21316 c 0.58052,-104.82485 1.55141,-180.220053 2.39654,-186.103659 3.55283,-24.734215 30.03898,-51.656548 56.21112,-57.136794 12.29884,-2.575284 31.70113,-1.985509 40.88634,1.242829 24.6431,8.661354 44.37179,29.278855 50.48872,52.763331 1.7422,6.688775 2.23775,36.620133 3.09495,186.934523 l 1.02061,178.97058 123.88838,0.12224 c 68.13863,0.0672 149.98343,0.5993 181.87735,1.18237 53.96981,0.98666 58.50665,1.26401 65.45852,4.00174 39.07198,15.38707 59.29703,57.16657 46.34773,95.74188 -7.18237,21.39594 -19.12073,34.51152 -41.65969,45.7677 l -13.30095,6.64263 -171.27363,0.86225 c -94.20051,0.47424 -175.78741,0.95159 -181.30425,1.06078 l -10.03062,0.19852 -1.01802,177.7701 c -0.5599,97.77356 -1.6007,180.84259 -2.31288,184.59787 -4.19608,22.12587 -24.26525,44.62063 -48.07297,53.88319 -12.56842,4.8898 -33.31007,6.3659 -44.41692,3.1609 z"
     id="path7" />
</svg>
