<?xml version="1.0" encoding="UTF-8" standalone="no"?>
<svg
   class="svg-icon"
   style="width: 1em; height: 1em;vertical-align: middle;fill: currentColor;overflow: hidden;"
   viewBox="0 0 1024 1024"
   version="1.1"
   id="svg3"
   sodipodi:docname="edit-60.svg"
   inkscape:version="1.3 (0e150ed6c4, 2023-07-21)"
   xmlns:inkscape="http://www.inkscape.org/namespaces/inkscape"
   xmlns:sodipodi="http://sodipodi.sourceforge.net/DTD/sodipodi-0.dtd"
   xmlns="http://www.w3.org/2000/svg"
   xmlns:svg="http://www.w3.org/2000/svg">
  <defs
     id="defs3" />
  <sodipodi:namedview
     id="namedview3"
     pagecolor="#ffffff"
     bordercolor="#000000"
     borderopacity="0.25"
     inkscape:showpageshadow="2"
     inkscape:pageopacity="0.0"
     inkscape:pagecheckerboard="0"
     inkscape:deskcolor="#d1d1d1"
     inkscape:zoom="0.70703125"
     inkscape:cx="512"
     inkscape:cy="511.29282"
     inkscape:window-width="1920"
     inkscape:window-height="1008"
     inkscape:window-x="0"
     inkscape:window-y="0"
     inkscape:window-maximized="1"
     inkscape:current-layer="svg3" />
  <path
     style="fill:#ffffff;stroke-width:3.4059;stroke-linecap:round;stroke-linejoin:round"
     d="m 65.483699,979.35382 c -9.598268,-2.95484 -17.82461,-11.67908 -19.524213,-20.70593 -0.768645,-4.08235 -0.267223,-9.83514 1.376176,-15.78865 3.647034,-13.21209 86.452448,-251.19431 94.864648,-272.64036 3.82107,-9.74146 10.00473,-22.30968 13.74147,-27.92941 4.3338,-6.51765 69.24332,-72.64954 179.2498,-182.62541 L 507.6473,287.25631 620.45461,400.04338 733.26189,512.83045 717.35497,529.02604 c -19.68201,20.03919 -263.9769,274.44626 -289.86798,301.86655 -22.92641,24.28054 -36.19269,35.14193 -52.32611,42.84054 -6.74514,3.21867 -73.75507,28.90151 -148.91098,57.07298 C 79.534429,985.801 83.013524,984.75038 65.483699,979.35382 Z"
     id="path4" />
  <path
     style="fill:#ffffff;stroke-width:3.4059;stroke-linecap:round;stroke-linejoin:round"
     d="M 767.74447,252.74517 654.89671,139.85589 708.99287,86.145949 c 58.74241,-58.323016 63.15209,-61.74788 86.62757,-67.281188 21.20286,-4.997631 46.29677,-1.032489 66.58274,10.520884 5.05089,2.876603 30.65463,27.147027 67.0463,63.554757 53.09216,53.115638 59.4222,60.040768 64.4468,70.505388 13.17562,27.44051 13.15352,54.19038 -0.0672,81.20607 -6.80709,13.90999 -9.15162,16.55385 -60.06025,67.7288 l -52.97666,53.25379 z"
     id="path5" />
  <path
     style="fill:#ffffff;stroke-width:3.4059;stroke-linecap:round;stroke-linejoin:round"
     d="M 768.54829,251.87723 656.50434,139.7605 706.3908,90.43146 c 54.08323,-53.478913 66.42215,-63.88721 81.13714,-68.442051 14.66446,-4.539187 45.65106,-3.997945 58.4124,1.020283 15.41178,6.060484 21.85582,11.325693 64.08426,52.360954 48.33552,46.969774 77.32717,78.123014 82.85602,89.033694 13.20388,26.05668 12.49958,54.76888 -2.02735,82.64493 -5.44595,10.45033 -13.29799,19.14227 -58.2775,64.51116 l -51.98355,52.43355 z"
     id="path7" />
  <path
     style="fill:#ffffff;stroke-width:3.4059;stroke-linecap:round;stroke-linejoin:round"
     d="M 768.54829,251.87723 656.50434,139.7605 706.3908,90.43146 C 733.82835,63.300508 761.05604,37.538244 766.89678,33.181994 782.52226,21.52794 791.33163,18.994676 815.88032,19.0961 c 22.6861,0.09368 31.90732,2.622849 47.86175,13.127082 11.03811,7.267396 117.71711,113.872028 124.6346,124.547728 8.16132,12.59527 12.52653,25.85533 13.51373,41.04997 1.1453,17.62978 -1.5092,29.94378 -10.20325,47.33195 -6.55992,13.11982 -10.16913,17.17938 -59.04097,66.4076 l -52.05396,52.43355 z"
     id="path8" />
  <path
     style="fill:#ffffff;stroke-width:3.4059;stroke-linecap:round;stroke-linejoin:round"
     d="m 670.68184,349.78629 -112.81572,-112.82528 23.43793,-23.39308 23.43794,-23.39308 112.81572,112.82528 112.81572,112.82529 -23.43795,23.39308 -23.43793,23.39308 z"
     id="path9" />
  <path
     style="fill:#ffffff;stroke-width:3.4059;stroke-linecap:round;stroke-linejoin:round"
     d="M 671.53249,348.93401 559.56825,236.96012 582.15554,214.41933 604.74281,191.87855 716.70705,303.85242 828.67128,415.8263 806.084,438.36708 783.49671,460.90787 Z"
     id="path10" />
</svg>
