<svg class="svg-icon" style="width: 1.4189453125em; height: 1em;vertical-align: middle;fill: currentColor;overflow: hidden;" viewBox="0 0 1453 1024" version="1.1" xmlns="http://www.w3.org/2000/svg"><path d="M470.643613 455.845161l0.528516-189.208774h-4.492387A186.103742 186.103742 0 0 0 284.077419 455.845161z" fill="#8BAEF7" /><path d="M505.723871 303.896774v187.028645H318.827355a200.241548 200.241548 0 0 0 194.295742 198.523871 191.124645 191.124645 0 0 0 191.124645-191.124645A200.307613 200.307613 0 0 0 505.723871 303.896774z" fill="#467CFD" /><path d="M845.625806 260.029935h264.258065v92.490323h-264.258065zM845.625806 435.100903h264.258065v92.490323h-264.258065zM845.625806 610.171871h264.258065v92.490323h-264.258065z" fill="#8BAEF7" /><path d="M1420.387097 918.296774h-42.941936V66.064516a66.064516 66.064516 0 0 0-66.064516-66.064516h-1149.52258a66.064516 66.064516 0 0 0-66.064517 66.064516v852.232258H33.032258a33.032258 33.032258 0 0 0-33.032258 33.032258v39.63871a33.032258 33.032258 0 0 0 33.032258 33.032258h1387.354839a33.032258 33.032258 0 0 0 33.032258-33.032258v-39.63871a33.032258 33.032258 0 0 0-33.032258-33.032258zM188.283871 92.490323h1096.670968v825.806451h-1096.670968z" fill="#467CFD" /></svg>