<?xml version="1.0" encoding="UTF-8" standalone="no"?>
<svg
   class="svg-icon"
   style="width: 1em; height: 1em;vertical-align: middle;fill: currentColor;overflow: hidden;"
   viewBox="0 0 1024 1024"
   version="1.1"
   id="svg6"
   sodipodi:docname="settings-125.svg"
   inkscape:version="1.3 (0e150ed6c4, 2023-07-21)"
   xmlns:inkscape="http://www.inkscape.org/namespaces/inkscape"
   xmlns:sodipodi="http://sodipodi.sourceforge.net/DTD/sodipodi-0.dtd"
   xmlns="http://www.w3.org/2000/svg"
   xmlns:svg="http://www.w3.org/2000/svg">
  <defs
     id="defs6" />
  <sodipodi:namedview
     id="namedview6"
     pagecolor="#ffffff"
     bordercolor="#000000"
     borderopacity="0.25"
     inkscape:showpageshadow="2"
     inkscape:pageopacity="0.0"
     inkscape:pagecheckerboard="0"
     inkscape:deskcolor="#d1d1d1"
     inkscape:zoom="0.70703125"
     inkscape:cx="512"
     inkscape:cy="511.29282"
     inkscape:window-width="1920"
     inkscape:window-height="1008"
     inkscape:window-x="0"
     inkscape:window-y="0"
     inkscape:window-maximized="1"
     inkscape:current-layer="svg6" />
  <path
     d="m 76.07939,905.40681 a 441.62987,109.44623 0 1 0 883.25972,0 441.62987,109.44623 0 1 0 -883.25972,0 z"
     fill="#b8cbcd"
     id="path1"
     style="stroke-width:1.15811" />
  <path
     d="M 664.37257,69.055263 C 650.41964,54.194367 622.32848,42.038822 601.9457,42.038822 H 242.84754 c -20.38277,0 -37.05959,16.676815 -37.05959,37.059589 V 856.36771 c 0,20.38278 16.67682,37.08739 37.05959,37.11518 l 574.42364,0.88016 c 20.38277,0.0278 37.05959,-16.62123 37.05959,-37.00399 V 308.39535 c 0,-20.38277 -11.41436,-49.22439 -25.3673,-64.07602 z"
     fill="#f7bb83"
     id="path2"
     style="stroke-width:1.15811" />
  <path
     d="M 835.80097,310.72085 H 622.70834 a 18.529795,18.529795 0 0 1 -18.5298,-18.5298 V 60.568616 a 18.529795,18.529795 0 0 1 37.05959,0 V 273.66126 h 194.56284 a 18.529795,18.529795 0 0 1 0,37.05959 z"
     fill="#8d4520"
     id="path3"
     style="stroke-width:1.15811" />
  <path
     d="m 690.48105,454.89191 -44.45297,-44.45298 a 8.4310566,8.4310566 0 0 0 -10.33963,-1.26002 l -23.17151,14.03632 a 167.00904,167.00904 0 0 0 -36.01265,-14.92575 l -6.45764,-26.29378 a 8.4495864,8.4495864 0 0 0 -8.19943,-6.42057 h -62.86233 a 8.4310566,8.4310566 0 0 0 -8.19017,6.42057 l -6.4669,26.29378 a 168.15789,168.15789 0 0 0 -36.00339,14.92575 l -23.18076,-14.03632 a 8.4310566,8.4310566 0 0 0 -10.33037,1.26002 l -44.45298,44.45298 a 8.4310566,8.4310566 0 0 0 -1.26002,10.33036 l 14.03632,23.18077 a 167.21287,167.21287 0 0 0 -14.92575,36.0034 l -26.29379,6.45763 a 8.4495864,8.4495864 0 0 0 -6.42056,8.19943 v 62.86233 c 0,3.89127 2.64976,7.26368 6.42056,8.19944 l 26.29379,6.45763 c 3.60404,12.67438 8.63488,24.73728 14.92575,36.01266 l -14.03632,23.17151 a 8.4310566,8.4310566 0 0 0 1.26002,10.33962 l 44.45298,44.45298 a 8.4310566,8.4310566 0 0 0 10.33037,1.25076 l 23.18076,-14.03632 a 166.74962,166.74962 0 0 0 36.00339,14.92576 l 6.45764,26.30303 a 8.4495864,8.4495864 0 0 0 8.19943,6.41132 h 62.86233 a 8.4495864,8.4495864 0 0 0 8.19943,-6.41132 l 6.45764,-26.30303 a 167.67611,167.67611 0 0 0 36.00339,-14.92576 l 23.18077,14.03632 a 8.4310566,8.4310566 0 0 0 10.33963,-1.25076 l 44.45297,-44.45298 a 8.4495864,8.4495864 0 0 0 1.25077,-10.33962 l -14.03633,-23.17151 a 167.00904,167.00904 0 0 0 14.92576,-36.01266 l 26.29378,-6.45763 a 8.4403215,8.4403215 0 0 0 6.42057,-8.19944 V 539.0635 a 8.4310566,8.4310566 0 0 0 -6.42057,-8.19017 l -26.29378,-6.46689 a 167.87994,167.87994 0 0 0 -14.92576,-36.0034 l 14.03633,-23.18077 a 8.4310566,8.4310566 0 0 0 -1.25077,-10.33036 z M 530.42069,658.46024 a 87.9702,87.9702 0 1 1 0.009,-175.93113 87.9702,87.9702 0 0 1 -0.009,175.93113 z"
     fill="#ffffff"
     id="path4"
     style="stroke-width:1.15811" />
  <path
     d="m 561.84722,783.95327 h -62.86233 a 26.914527,26.914527 0 0 1 -26.1826,-20.49395 l -3.99316,-16.2321 a 187.96624,187.96624 0 0 1 -19.7991,-8.20869 l -14.26794,8.64414 a 26.868202,26.868202 0 0 1 -33.02935,-4.00243 l -44.45298,-44.45298 a 26.923791,26.923791 0 0 1 -4.03023,-33.01084 l 8.66268,-14.29573 a 185.5481,185.5481 0 0 1 -8.2087,-19.79908 L 337.48847,628.1177 A 26.923791,26.923791 0 0 1 316.95745,601.92583 V 539.0635 c 0,-12.43349 8.43106,-23.20857 20.51249,-26.18259 l 16.21357,-3.99317 c 2.35329,-6.75412 5.09569,-13.35999 8.2087,-19.7991 l -8.64416,-14.26794 a 26.905262,26.905262 0 0 1 4.03024,-33.05714 l 44.43445,-44.42519 a 26.895997,26.895997 0 0 1 33.02009,-4.0117 l 14.2772,8.64415 a 184.89956,184.89956 0 0 1 19.80836,-8.2087 l 3.9839,-16.19504 a 26.895997,26.895997 0 0 1 26.1826,-20.53101 h 62.86233 c 12.43349,0 23.20857,8.43105 26.18261,20.51248 l 3.9839,16.21357 c 6.75411,2.35328 13.35998,5.09569 19.80835,8.2087 l 14.26794,-8.64415 a 26.895997,26.895997 0 0 1 33.03863,4.0117 l 44.45297,44.45298 a 26.914527,26.914527 0 0 1 4.00244,33.02009 l -8.64415,14.2772 c 3.113,6.43911 5.85541,13.05425 8.2087,19.80836 l 16.19504,3.98391 c 12.08142,2.9555 19.80835,17.00109 19.80835,29.46237 v 55.58939 c 0,12.43349 -7.7084,27.211 -19.78982,30.18503 l -16.21357,3.98391 c -2.35329,6.7541 -5.0957,13.35998 -8.2087,19.80835 l 8.64415,14.26794 a 26.960851,26.960851 0 0 1 -3.97464,33.0201 l -44.48077,44.4715 a 26.979381,26.979381 0 0 1 -33.03863,4.00243 l -14.26794,-8.64414 a 187.15093,187.15093 0 0 1 -19.79909,8.2087 l -3.9839,16.19504 a 26.923791,26.923791 0 0 1 -26.19187,20.52174 z m -54.95011,-37.05959 h 47.04715 l 4.5676,-18.61318 a 18.511265,18.511265 0 0 1 12.94306,-13.39703 c 11.11787,-3.15933 21.88369,-7.61575 32.01022,-13.2766 a 18.57612,18.57612 0 0 1 18.64097,0.32426 l 16.4174,9.94124 33.26099,-33.27025 -9.93198,-16.40813 a 18.548324,18.548324 0 0 1 -0.32427,-18.64097 149.7856,149.7856 0 0 0 13.28587,-32.01949 18.492735,18.492735 0 0 1 13.39703,-12.94306 l 18.61318,-4.56759 v -47.03789 l -18.61318,-4.57685 a 18.529795,18.529795 0 0 1 -13.39703,-12.9338 148.81278,148.81278 0 0 0 -13.28587,-32.01949 18.529795,18.529795 0 0 1 0.32427,-18.64097 l 9.93198,-16.4174 -33.26099,-33.26098 -16.40813,9.93197 a 18.529795,18.529795 0 0 1 -18.64097,0.32427 149.7856,149.7856 0 0 0 -32.01949,-13.28586 18.492735,18.492735 0 0 1 -12.94306,-13.39705 l -4.5676,-18.61318 h -47.03788 l -4.57686,18.61318 a 18.529795,18.529795 0 0 1 -12.93379,13.39705 148.84984,148.84984 0 0 0 -32.02875,13.28586 18.57612,18.57612 0 0 1 -18.64097,-0.32427 l -16.39888,-9.93197 -33.27024,33.27024 9.93196,16.40814 a 18.529795,18.529795 0 0 1 0.32428,18.64097 149.32235,149.32235 0 0 0 -13.28586,32.02875 18.548324,18.548324 0 0 1 -13.39705,12.9338 l -18.61318,4.56759 v 47.04715 l 18.61318,4.5676 a 18.529795,18.529795 0 0 1 13.39705,12.93379 149.31308,149.31308 0 0 0 13.28586,32.03802 18.548324,18.548324 0 0 1 -0.32428,18.64097 l -9.93196,16.40814 33.26098,33.26098 16.40814,-9.93198 a 18.57612,18.57612 0 0 1 18.64097,-0.32426 148.82204,148.82204 0 0 0 32.01022,13.2766 18.492735,18.492735 0 0 1 12.94306,13.39703 z m 23.52358,-69.90365 c -58.72091,0 -106.49073,-47.76981 -106.49073,-106.49072 0,-58.72093 47.76982,-106.49074 106.49073,-106.49074 58.72092,0 106.49073,47.76981 106.49073,106.49074 0,58.72091 -47.76981,106.49072 -106.49073,106.49072 z m 0,-175.92187 c -38.28256,0 -69.43114,31.14858 -69.43114,69.43115 0,38.28255 31.14858,69.43113 69.43114,69.43113 38.28256,0 69.43114,-31.14858 69.43114,-69.43113 0,-38.28257 -31.14858,-69.43115 -69.43114,-69.43115 z"
     fill="#8d4520"
     id="path5"
     style="stroke-width:1.15811" />
  <path
     d="m 808.06187,922.14848 h -0.0834 l -574.43284,-0.8709 C 197.81092,921.22198 168.7284,892.10242 168.7284,856.36771 V 79.098411 c 0,-35.762503 29.09178,-64.854281 64.85428,-64.854281 H 592.6808 c 27.98925,0 63.53867,15.388995 82.68921,35.781034 l 164.5909,175.264056 c 18.75215,19.98439 32.89965,55.70984 32.89965,83.10613 v 548.95444 c 0,17.2883 -6.76337,33.56672 -19.03936,45.82418 a 64.326182,64.326182 0 0 1 -45.75933,18.97451 z m -0.0463,-55.53379 c 3.26123,0 5.52187,-1.76033 6.54101,-2.77947 a 9.1722484,9.1722484 0 0 0 2.72388,-6.48543 V 308.39535 c 0,-13.38777 -8.67194,-35.28999 -17.83492,-45.05519 L 634.85462,88.076097 C 626.21046,78.866789 607.56023,69.777925 594.92291,69.777925 h -361.331 a 9.4501954,9.4501954 0 0 0 -9.27416,9.320486 l 0.009,777.269299 c 0,5.04011 4.21553,10.23771 9.26489,10.24698 z"
     fill="#8d4520"
     id="path6"
     style="stroke-width:1.15811" />
</svg>
