<?xml version="1.0" encoding="UTF-8" standalone="no"?>
<svg
   class="svg-icon"
   style="width: 1em; height: 1em;vertical-align: middle;fill: currentColor;overflow: hidden;"
   viewBox="0 0 1024 1024"
   version="1.1"
   id="svg10"
   sodipodi:docname="users-61.svg"
   inkscape:version="1.3 (0e150ed6c4, 2023-07-21)"
   xmlns:inkscape="http://www.inkscape.org/namespaces/inkscape"
   xmlns:sodipodi="http://sodipodi.sourceforge.net/DTD/sodipodi-0.dtd"
   xmlns="http://www.w3.org/2000/svg"
   xmlns:svg="http://www.w3.org/2000/svg">
  <defs
     id="defs10" />
  <sodipodi:namedview
     id="namedview10"
     pagecolor="#ffffff"
     bordercolor="#000000"
     borderopacity="0.25"
     inkscape:showpageshadow="2"
     inkscape:pageopacity="0.0"
     inkscape:pagecheckerboard="0"
     inkscape:deskcolor="#d1d1d1"
     inkscape:zoom="0.70703125"
     inkscape:cx="512"
     inkscape:cy="511.29282"
     inkscape:window-width="1920"
     inkscape:window-height="1008"
     inkscape:window-x="0"
     inkscape:window-y="0"
     inkscape:window-maximized="1"
     inkscape:current-layer="svg10" />
  <path
     d="m 842.45903,457.43741 c -12.72341,-80.13043 -54.6836,-150.786 -114.51072,-201.40895 -59.2857,-50.08153 -135.8969,-80.40115 -219.27587,-80.40115 -82.83756,0 -158.63662,30.04892 -217.11018,79.85973 -59.2857,50.62295 -100.70448,121.54921 -113.69861,201.95037 l -43.85516,-7.03849 C 148.35616,359.16933 195.45988,279.03889 262.59619,221.64818 328.92037,165.06959 414.73573,130.96 508.40173,130.96 c 93.93669,0 180.8349,34.10959 247.70051,90.95889 67.67775,57.12 115.32286,137.52116 129.67055,228.48003 z"
     fill="#00796b"
     id="path1"
     style="stroke-width:1.29935" />
  <path
     d="m 510.29669,637.46019 c -43.04303,0 -83.10825,-17.32551 -112.88646,-48.45726 l -3.51923,-3.78995 -4.60209,2.70711 C 326.21326,624.46606 284.79449,688.08314 272.61249,767.67215 l -0.54142,2.97783 1.89497,2.16569 c 63.07565,75.52834 146.99604,117.21784 236.33065,117.21784 z"
     fill="#ef5350"
     id="path2"
     style="stroke-width:1.29935" />
  <path
     d="m 631.3045,587.92009 -4.60209,-2.70711 -3.51923,3.78995 c -29.77821,31.40247 -69.84343,48.45726 -112.61577,48.45726 h -0.27072 v 252.3026 c 89.33463,0 173.25503,-41.68948 236.05996,-117.21784 l 1.89497,-2.16568 -0.54142,-2.97782 C 735.79893,688.08314 694.38014,624.46606 631.3045,587.92009 Z m -121.00781,17.86692 h 0.27072 c 77.96476,-0.27071 141.31111,-63.88778 141.31111,-141.85254 0,-77.96474 -63.34635,-141.58182 -141.04039,-141.85254 h -0.54144 z"
     fill="#e53935"
     id="path3"
     style="stroke-width:1.29935" />
  <path
     d="M 510.29669,605.78701 V 322.08193 c -78.23545,0 -141.85253,63.61708 -141.85253,141.85254 0,77.96476 63.61708,141.85254 141.85253,141.85254 z"
     fill="#ef5350"
     id="path4"
     style="stroke-width:1.29935" />
  <path
     d="m 156.20677,589.00293 c -26.25895,0 -50.62293,-10.55772 -68.760569,-29.50749 l -2.165688,-2.16569 -2.707108,1.62426 C 44.13245,581.15231 18.956331,619.86398 11.647134,668.32124 l -0.270708,1.89497 1.082842,1.35356 c 38.440955,46.02086 89.605322,71.46769 144.018232,71.46769 z"
     fill="#fbc02d"
     id="path5"
     style="stroke-width:1.29935" />
  <path
     d="m 230.11088,558.68331 -2.70712,-1.62426 -2.16569,2.16568 c -18.13763,18.94976 -42.50162,29.50749 -68.48987,29.50749 h -0.2707 v 153.76382 c 54.4129,0 105.57727,-25.44684 143.74751,-71.46769 l 1.08284,-1.35356 -0.27071,-1.89497 c -7.3092,-47.91584 -32.48531,-86.89822 -70.92626,-109.09651 z m -73.90411,10.82844 c 47.64514,-0.27072 86.3568,-38.98238 86.3568,-86.3568 0,-47.37442 -38.44095,-86.08608 -86.08607,-86.3568 h -0.27073 z"
     fill="#f9a825"
     id="path6"
     style="stroke-width:1.29935" />
  <path
     d="m 156.20677,569.51175 v -172.7136 c -47.64512,0 -86.356781,38.71167 -86.35678,86.3568 0,47.64512 38.71166,86.3568 86.35678,86.3568 z"
     fill="#fbc02d"
     id="path7"
     style="stroke-width:1.29935" />
  <path
     d="m 864.11591,589.00293 c -26.25895,0 -50.62295,-10.55772 -68.76057,-29.50749 l -2.1657,-2.16569 -2.70711,1.62426 c -38.44095,22.1983 -63.61708,60.90997 -70.92626,109.36723 l -0.27071,1.89497 1.08284,1.35356 c 38.44096,46.02086 89.60533,71.46769 144.01823,71.46769 z"
     fill="#fbc02d"
     id="path8"
     style="stroke-width:1.29935" />
  <path
     d="m 937.74929,558.68331 -2.70711,-1.62426 -2.16569,2.16568 c -18.13763,18.94976 -42.50161,29.50749 -68.48986,29.50749 h -0.27072 v 153.76382 c 54.4129,0 105.57727,-25.44684 143.74749,-71.46769 l 1.0829,-1.35356 -0.2707,-1.89497 c -7.3092,-47.91584 -32.48536,-86.89822 -70.92631,-109.09651 z m -73.63338,10.82844 c 47.64514,-0.27072 86.3568,-38.98238 86.3568,-86.3568 0,-47.37442 -38.44095,-86.08608 -86.08608,-86.3568 h -0.27072 z"
     fill="#f9a825"
     id="path9"
     style="stroke-width:1.29935" />
  <path
     d="m 864.11591,569.51175 v -172.7136 c -47.64512,0 -86.35679,38.71167 -86.35679,86.3568 0,47.64512 38.71167,86.3568 86.35679,86.3568 z"
     fill="#fbc02d"
     id="path10"
     style="stroke-width:1.29935" />
</svg>
