<?xml version="1.0" encoding="UTF-8" standalone="no"?>
<svg
   class="svg-icon"
   style="width: 1em; height: 1em;vertical-align: middle;fill: currentColor;overflow: hidden;"
   viewBox="0 0 1024 1024"
   version="1.1"
   id="svg6"
   sodipodi:docname="05-bulb.svg"
   inkscape:version="1.3 (0e150ed6c4, 2023-07-21)"
   xmlns:inkscape="http://www.inkscape.org/namespaces/inkscape"
   xmlns:sodipodi="http://sodipodi.sourceforge.net/DTD/sodipodi-0.dtd"
   xmlns="http://www.w3.org/2000/svg"
   xmlns:svg="http://www.w3.org/2000/svg">
  <defs
     id="defs6" />
  <sodipodi:namedview
     id="namedview6"
     pagecolor="#ffffff"
     bordercolor="#000000"
     borderopacity="0.25"
     inkscape:showpageshadow="2"
     inkscape:pageopacity="0.0"
     inkscape:pagecheckerboard="0"
     inkscape:deskcolor="#d1d1d1"
     inkscape:zoom="0.70703125"
     inkscape:cx="512"
     inkscape:cy="511.29282"
     inkscape:window-width="1920"
     inkscape:window-height="1008"
     inkscape:window-x="0"
     inkscape:window-y="0"
     inkscape:window-maximized="1"
     inkscape:current-layer="svg6" />
  <path
     d="m 651.73146,803.88966 -4.93294,31.39144 h -265.594 l -4.93294,-31.39144 z m -137.786,180.16445 c -34.08213,0 -62.67076,-24.21625 -69.50961,-56.28037 h 139.01923 c -6.83885,32.06412 -35.42748,56.28037 -69.50962,56.28037 z M 629.98168,895.14907 H 397.90925 c -3.81182,0 -7.17518,-2.46648 -8.29631,-6.16619 l -3.25125,-21.18922 h 255.39178 l -3.36337,21.18922 c -1.12112,3.69971 -4.48449,6.16619 -8.40842,6.16619 z M 371.22652,771.3771 l -9.08109,-58.18628 -0.11211,-0.67266 c -8.29631,-34.08214 -25.33737,-65.6978 -49.10519,-91.59574 -47.64771,-51.79588 -73.88199,-118.95114 -73.88199,-189.13343 0,-151.46369 123.21141,-274.78721 274.6751,-275.01144 h 0.33633 c 150.23046,0 273.55398,122.09028 275.01144,272.32074 0.67268,70.29441 -25.22526,137.44967 -72.87298,189.02132 -24.10414,26.01005 -41.25732,57.96205 -49.66574,92.38052 l -0.11212,0.67268 -9.41742,60.09218 H 371.22652 Z"
     fill="#ffffff"
     id="path1"
     style="display:inline;stroke-width:1.12113" />
  <path
     d="m 340.17143,771.15288 -8.96899,-58.18628 -0.11212,-0.67267 c -8.2963,-34.08214 -25.11315,-65.6978 -48.76883,-91.59574 -47.31139,-51.79587 -73.32144,-118.95114 -73.32144,-189.13342 0,-151.4637 122.20239,-274.78722 272.54496,-275.01144 h 0.33634 c 149.10934,0 271.42385,122.09028 272.76919,272.32074 0.67267,70.2944 -25.00104,137.44966 -72.31243,189.02132 -23.87991,26.01005 -40.92098,57.96205 -49.21729,92.38052 l -0.11211,0.67267 -9.30532,60.09218 H 340.17143 Z"
     fill="#f7df8a"
     id="path2"
     style="display:inline;stroke-width:1.12113" />
  <path
     d="m 619.10679,804.45023 -4.82083,31.39143 h -259.0915 l -4.82082,-31.39143 z m -21.07711,91.2594 H 371.45075 c -3.69971,0 -7.06307,-2.46648 -8.07209,-6.16618 l -3.25125,-21.18922 h 249.22561 l -3.25125,21.18922 c -1.12113,3.6997 -4.37239,6.16618 -8.07209,6.16618 z"
     fill="#e87a66"
     id="path3"
     style="display:inline;stroke-width:1.12113" />
  <path
     d="m 483.56304,984.05411 c -32.51257,0 -59.86797,-24.21625 -66.37048,-56.28037 h 132.62883 c -6.50251,32.06412 -33.74579,56.28037 -66.25835,56.28037 z"
     fill="#65d5ef"
     id="path4"
     style="stroke-width:1.12113" />
  <path
     d="m 513.94546,124.26499 h -0.33634 c -82.06619,0.11211 -159.19943,32.06411 -217.16149,90.13828 -57.96205,58.07416 -89.91405,135.20742 -89.91405,217.38572 0,39.46353 7.39941,78.14226 22.08612,115.02721 14.23826,35.6517 34.53058,68.05216 60.31641,96.08022 19.95598,21.63768 34.19424,48.09618 41.25731,76.68481 l 27.46752,176.01629 0.11211,0.67266 c 4.4845,18.49853 20.965,31.39145 40.02409,31.39145 h 13.45347 c 7.17519,50.11419 50.45053,88.79297 102.58274,88.79297 52.13222,0 95.40756,-38.67878 102.58275,-88.79297 h 13.45347 c 19.05909,0 35.53959,-12.89292 40.02408,-31.39145 l 0.11212,-0.67266 6.27828,-40.02409 c 0.22423,-1.00901 0.44845,-2.01803 0.44845,-3.02703 l 21.18922,-134.9832 c 7.17519,-28.81285 21.63767,-55.60768 41.81788,-77.46958 53.25335,-57.73783 82.17832,-132.85306 81.50564,-211.44377 C 820.46045,347.25633 788.06,270.68364 729.87372,213.17004 672.02378,155.88065 595.22687,124.26499 513.94546,124.26499 Z m 137.786,679.62467 -4.93294,31.39144 h -265.594 l -4.93294,-31.39144 z m -137.786,180.16445 c -34.08213,0 -62.67076,-24.21625 -69.50961,-56.28037 h 139.01923 c -6.83885,32.06412 -35.42748,56.28037 -69.50962,56.28037 z M 629.98168,895.14907 H 397.90925 c -3.81182,0 -7.17518,-2.46648 -8.29631,-6.16619 l -3.25125,-21.18922 h 255.39178 l -3.36337,21.18922 c -1.12112,3.69971 -4.48449,6.16619 -8.40842,6.16619 z m 86.10223,-276.91735 c -24.10413,26.01006 -41.25731,57.96206 -49.66574,92.38052 l -0.11211,0.67268 -9.41743,60.09218 H 530.20175 V 580.22565 c 0,-8.96898 -7.2873,-16.25627 -16.25629,-16.25627 -8.96898,0 -16.25628,7.28729 -16.25628,16.25627 V 771.3771 H 371.22652 l -9.08109,-58.18628 -0.11211,-0.67266 c -8.29631,-34.08214 -25.33737,-65.6978 -49.10519,-91.59574 -47.64771,-51.79588 -73.88199,-118.95114 -73.88199,-189.13343 0,-151.46369 123.21141,-274.78721 274.6751,-275.01144 h 0.33633 c 150.23046,0 273.55398,122.09028 275.01144,272.32074 0.44846,70.40652 -25.33737,137.44967 -72.9851,189.13343 z"
     fill="#274359"
     id="path5"
     style="stroke-width:1.12113;fill:#aa8800" />
  <path
     d="m 513.94546,463.85311 c -8.96898,0 -16.25628,7.2873 -16.25628,16.25627 v 33.29735 c 0,8.96898 7.2873,16.25628 16.25628,16.25628 8.96899,0 16.25629,-7.2873 16.25629,-16.25628 v -33.29735 c 0,-8.96897 -7.2873,-16.25627 -16.25629,-16.25627 z M 513.2728,104.98168 c 8.96897,0 16.25627,-7.2873 16.25627,-16.256283 v -60.42852 c 0,-8.968983 -7.2873,-16.256282 -16.25627,-16.256282 -8.96899,0 -16.25629,7.287299 -16.25629,16.256282 v 60.316409 c 0,9.081094 7.2873,16.368394 16.25629,16.368394 z m -257.85827,97.76191 c 3.13914,3.13915 7.2873,4.82083 11.54757,4.82083 4.14816,0 8.29631,-1.56957 11.54757,-4.82083 6.3904,-6.3904 6.3904,-16.70473 0,-22.98301 L 235.79489,137.0458 c -6.39041,-6.39041 -16.70474,-6.39041 -22.98302,0 -6.3904,6.39039 -6.3904,16.70472 0,22.98301 z m -90.13828,218.95529 h -60.3164 c -8.968985,0 -16.256284,7.2873 -16.256284,16.25629 0,8.96897 7.287299,16.25627 16.256284,16.25627 h 60.3164 c 8.96899,0 16.25629,-7.2873 16.25629,-16.25627 0.11211,-8.96899 -7.17519,-16.25629 -16.25629,-16.25629 z m 91.1473,251.13153 -42.71478,42.71478 c -6.3904,6.3904 -6.3904,16.70472 0,22.98301 3.13914,3.13914 7.28729,4.82083 11.54756,4.82083 4.14815,0 8.29631,-1.56958 11.54756,-4.82083 l 42.71479,-42.71478 c 6.3904,-6.3904 6.3904,-16.70473 0,-22.98301 -6.50252,-6.39041 -16.70474,-6.39041 -23.09513,0 z m 516.05284,-1.00902 c -6.3904,-6.39039 -16.70473,-6.39039 -22.98301,0 -6.3904,6.3904 -6.3904,16.70473 0,22.98302 l 42.71478,42.71479 c 3.13914,3.13914 7.2873,4.82082 11.54756,4.82082 4.26026,0 8.29631,-1.56957 11.54756,-4.82082 6.39041,-6.39041 6.39041,-16.70474 0,-22.98303 z m 150.4547,-251.46785 h -60.31642 c -8.96898,0 -16.25628,7.2873 -16.25628,16.25628 0,8.96898 7.2873,16.25628 16.25628,16.25628 h 60.31642 c 8.96897,0 16.25627,-7.2873 16.25627,-16.25628 0,-8.96898 -7.2873,-16.25628 -16.25627,-16.25628 z M 759.91982,206.55541 c 4.14816,0 8.29631,-1.56957 11.54757,-4.82083 l 42.71478,-42.71477 c 6.39039,-6.39041 6.39039,-16.70474 0,-22.98303 -6.3904,-6.3904 -16.70474,-6.3904 -22.98303,0 l -42.71478,42.71478 c -6.39039,6.3904 -6.39039,16.70473 0,22.98302 3.13915,3.25126 7.2873,4.82083 11.43546,4.82083 z"
     fill="#274359"
     id="path6"
     style="display:inline;fill:#ffd42a;stroke-width:1.12113" />
</svg>
