<?xml version="1.0" encoding="UTF-8" standalone="no"?>
<svg
   class="svg-icon"
   style="width: 1em; height: 1em;vertical-align: middle;fill: currentColor;overflow: hidden;"
   viewBox="0 0 1024 1024"
   version="1.1"
   id="svg1"
   sodipodi:docname="dumbell.svg"
   inkscape:version="1.3 (0e150ed6c4, 2023-07-21)"
   xmlns:inkscape="http://www.inkscape.org/namespaces/inkscape"
   xmlns:sodipodi="http://sodipodi.sourceforge.net/DTD/sodipodi-0.dtd"
   xmlns="http://www.w3.org/2000/svg"
   xmlns:svg="http://www.w3.org/2000/svg">
  <defs
     id="defs1" />
  <sodipodi:namedview
     id="namedview1"
     pagecolor="#ffffff"
     bordercolor="#000000"
     borderopacity="0.25"
     inkscape:showpageshadow="2"
     inkscape:pageopacity="0.0"
     inkscape:pagecheckerboard="0"
     inkscape:deskcolor="#d1d1d1"
     inkscape:zoom="0.70703125"
     inkscape:cx="512"
     inkscape:cy="511.29282"
     inkscape:window-width="1920"
     inkscape:window-height="1008"
     inkscape:window-x="0"
     inkscape:window-y="0"
     inkscape:window-maximized="1"
     inkscape:current-layer="svg1" />
  <path
     style="fill:#ff6600;stroke-width:2.82873;stroke-linecap:round;stroke-linejoin:round"
     d="M 879.73481,592.75212 C 869.34665,590.1849 865.39748,587.71443 849.90354,574.09068 829.72945,556.35172 449.21319,175.51585 442.14541,165.99007 c -11.35697,-15.30662 -15.7433,-37.33706 -10.8116,-54.30151 5.2676,-18.119902 9.38368,-23.806442 37.34669,-51.596044 27.34551,-27.175915 34.31558,-32.349606 48.76507,-36.196928 9.81372,-2.613003 25.58714,-2.474787 34.9607,0.306346 14.98582,4.446283 20.59533,8.534179 46.42302,33.830468 13.87483,13.589362 25.7107,24.707929 26.30195,24.707929 0.59123,0 7.01724,-5.680845 14.28002,-12.624101 25.77683,-24.642824 50.97402,-30.832024 80.51884,-19.777891 9.88095,3.696937 15.25992,8.671435 93.80481,86.751161 77.34688,76.88882 146.93399,148.29001 152.5742,156.55171 9.36148,13.71257 13.43129,32.65413 10.44977,48.63503 -2.83634,15.20281 -9.87703,27.49029 -24.28667,42.38539 l -12.9871,13.42462 24.89747,25.57478 c 20.95354,21.52358 25.68598,27.18527 29.87518,35.74141 9.50124,19.40567 9.42454,40.69222 -0.21757,60.37657 -4.52753,9.24294 -8.30264,13.71171 -29.34188,34.73326 -13.28021,13.26904 -27.75609,26.54744 -32.16864,29.50755 -14.27634,9.57712 -35.3032,13.05498 -52.79486,8.7323 z"
     id="path10" />
  <path
     style="fill:#ff6600;stroke-width:2.82873;stroke-linecap:round;stroke-linejoin:round"
     d="m 469.55059,999.53323 c -13.09364,-4.52766 -20.9491,-10.52378 -45.88722,-35.02586 l -24.81254,-24.3787 -13.6795,13.16289 c -21.66207,20.84397 -41.27509,28.38958 -64.2515,24.71907 -19.75292,-3.15554 -21.3171,-4.22526 -58.79381,-40.20778 C 223.8276,901.03138 102.25037,779.21621 72.369538,747.67499 56.98051,731.43084 52.545441,725.82912 50.280414,719.77529 c -7.35173,-19.64926 -6.5727,-39.01077 2.298388,-57.12263 3.977879,-8.12152 8.255411,-13.69101 18.380161,-23.93159 7.257653,-7.34067 13.195733,-13.67673 13.195733,-14.08012 0,-0.40338 -10.389085,-11.27395 -23.086856,-24.1568 C 48.370069,587.6013 35.862406,573.94159 33.273034,570.12926 19.677513,550.11254 19.76953,518.89081 33.486216,497.79635 c 2.507694,-3.8565 15.411324,-17.85626 28.674735,-31.11057 25.548284,-25.53076 32.390478,-30.42126 49.453669,-35.34732 17.06745,-4.92728 39.04311,-0.56256 54.37545,10.79985 10.41854,7.72091 408.15071,405.45308 415.87162,415.87162 15.43115,20.82265 16.85995,46.43849 3.97295,71.22764 -6.01653,11.57331 -53.38856,59.40764 -64.26058,64.88773 -15.48927,7.8074 -38.24388,10.1728 -52.02347,5.40793 z"
     id="path11" />
  <path
     style="fill:#ff6600;stroke-width:2.82873;stroke-linecap:round;stroke-linejoin:round"
     d="m 422.80297,598.8883 -55.06816,-55.0848 62.94806,-62.57578 c 34.62144,-34.41668 74.76959,-74.23584 89.21811,-88.48701 l 26.27006,-25.91122 55.50054,54.80066 55.50053,54.80066 -71.87887,71.97506 c -39.53337,39.58627 -79.8761,79.53329 -89.65049,88.77113 l -17.77162,16.79609 z"
     id="path12" />
</svg>
