<?xml version="1.0" encoding="UTF-8" standalone="no"?>
<svg
   class="svg-icon"
   style="width: 1em; height: 1em;vertical-align: middle;fill: currentColor;overflow: hidden;"
   viewBox="0 0 1024 1024"
   version="1.1"
   id="svg2"
   sodipodi:docname="eye-21.svg"
   inkscape:version="1.3 (0e150ed6c4, 2023-07-21)"
   xmlns:inkscape="http://www.inkscape.org/namespaces/inkscape"
   xmlns:sodipodi="http://sodipodi.sourceforge.net/DTD/sodipodi-0.dtd"
   xmlns="http://www.w3.org/2000/svg"
   xmlns:svg="http://www.w3.org/2000/svg">
  <defs
     id="defs2" />
  <sodipodi:namedview
     id="namedview2"
     pagecolor="#ffffff"
     bordercolor="#000000"
     borderopacity="0.25"
     inkscape:showpageshadow="2"
     inkscape:pageopacity="0.0"
     inkscape:pagecheckerboard="0"
     inkscape:deskcolor="#d1d1d1"
     inkscape:zoom="0.70703125"
     inkscape:cx="512"
     inkscape:cy="511.29282"
     inkscape:window-width="1920"
     inkscape:window-height="1008"
     inkscape:window-x="0"
     inkscape:window-y="0"
     inkscape:window-maximized="1"
     inkscape:current-layer="svg2" />
  <path
     style="fill:#ffffff;stroke-width:2.82873;stroke-linecap:round;stroke-linejoin:round"
     d="M 474.51934,822.92952 C 400.15138,815.64071 348.36746,801.64144 289.94475,773.03162 188.8366,723.51857 96.745821,633.89761 37.496739,527.35412 l -8.407374,-15.1184 7.974605,-11.43278 c 12.873896,-18.45664 33.817522,-45.3384 51.882688,-66.593 21.325832,-25.09092 76.759742,-80.40631 99.871022,-99.6575 82.07138,-68.36363 160.89672,-109.2062 243.9779,-126.41472 30.26242,-6.26822 41.81906,-7.3025 80.61878,-7.21512 30.50512,0.0687 40.14875,0.60873 56.57459,3.16808 85.98015,13.39679 168.51638,52.03693 249.43996,116.7777 60.33966,48.27314 117.2712,109.01453 163.77294,174.73251 l 11.53333,16.29935 -4.68335,9.24326 c -13.35472,26.35735 -38.69981,64.69063 -62.35073,94.30262 -97.29567,121.81846 -223.041,192.5633 -366.74017,206.32949 -19.37184,1.85581 -72.09875,2.55967 -86.44159,1.15391 z M 550.66273,708.00207 C 612.69111,695.97788 664.73237,655.91558 692.27886,598.98343 705.24003,572.19571 711.22715,544.71145 711.22715,512 c 0,-55.58299 -19.39431,-103.05997 -57.78074,-141.44641 C 615.05997,332.16716 567.58299,312.77285 512,312.77285 c -32.71145,0 -60.19571,5.98711 -86.98343,18.94829 -57.89065,28.01026 -97.43743,80.20132 -109.81016,144.91974 -3.32141,17.37339 -3.32141,53.34485 0,70.71824 8.02113,41.9563 26.41937,77.26573 55.29849,106.12741 33.19164,33.17161 75.5841,52.84826 124.52272,57.7978 11.43516,1.15653 42.05631,-0.65 55.63511,-3.28226 z"
     id="path3" />
  <path
     style="fill:#ffffff;stroke-width:2.82873;stroke-linecap:round;stroke-linejoin:round"
     d="M 491.49171,593.9346 C 454.1614,584.17404 427.8453,550.29627 427.8453,512 c 0,-46.50097 37.65373,-84.1547 84.1547,-84.1547 38.61293,0 72.4624,26.535 82.02091,64.29716 11.11984,43.93032 -17.31108,90.52527 -62.16337,101.87845 -10.47378,2.65117 -30.05616,2.6093 -40.36583,-0.0863 z"
     id="path4" />
</svg>
